<?xml version="1.0" standalone="no"?>
<!DOCTYPE svg PUBLIC "-//W3C//DTD SVG 20010904//EN"
 "http://www.w3.org/TR/2001/REC-SVG-20010904/DTD/svg10.dtd">
<svg version="1.0" xmlns="http://www.w3.org/2000/svg"
 width="194.000000pt" height="259.000000pt" viewBox="0 0 194.000000 259.000000"
 preserveAspectRatio="xMidYMid meet">

<g transform="translate(0.000000,259.000000) scale(0.100000,-0.100000)"
fill="#000000" stroke="none">
<path d="M0 2248 c0 -188 2 -339 5 -337 2 3 5 40 7 82 1 42 6 77 10 77 13 0
14 -71 2 -160 -5 -36 -8 -41 -15 -25 -4 11 -8 -57 -8 -157 -1 -152 1 -178 14
-178 8 0 15 -7 15 -16 0 -13 -3 -14 -14 -4 -13 10 -15 -31 -15 -314 -1 -206 3
-327 9 -331 6 -3 10 -11 10 -16 0 -6 -5 -7 -12 -3 -7 4 -8 3 -4 -4 4 -7 16
-12 28 -12 19 0 19 1 5 24 -16 23 -15 23 8 12 13 -6 22 -13 20 -16 -2 -4 9
-11 24 -17 21 -8 28 -7 28 3 0 7 -3 11 -7 9 -8 -5 -36 13 -29 19 3 3 22 -3 42
-14 28 -15 35 -16 31 -5 -7 16 19 17 44 1 24 -15 104 -8 124 12 8 8 19 8 43
-3 29 -11 33 -11 31 2 -2 9 -10 21 -20 28 -15 11 -14 13 6 19 13 3 30 5 38 5
8 -1 4 -4 -9 -8 l-25 -7 24 -22 c13 -12 35 -21 49 -20 42 3 47 11 16 24 -20 9
-24 13 -12 14 17 0 17 1 3 16 -22 21 -20 27 4 12 11 -7 18 -18 16 -25 -5 -12
43 -11 64 2 5 3 10 2 10 -2 0 -5 -14 -14 -31 -20 -20 -8 -29 -17 -26 -26 3 -8
-3 -13 -16 -14 -30 -3 -47 -23 -19 -23 13 0 25 -7 28 -15 4 -8 10 -12 15 -9 5
3 6 11 3 17 -4 7 -3 8 2 4 5 -5 9 -13 9 -19 0 -17 35 -18 69 -2 17 8 23 12 13
9 -16 -4 -16 -2 -1 26 8 17 14 42 12 57 -3 25 0 27 39 28 23 0 40 -3 38 -7 -3
-4 4 -5 15 -2 10 3 18 10 17 16 -1 7 9 11 26 9 16 -2 27 1 27 8 0 7 -7 9 -16
6 -8 -3 -12 -2 -9 3 3 5 -5 12 -17 14 l-23 4 23 2 c13 0 21 5 18 10 -3 4 6 6
20 3 17 -3 23 -9 20 -19 -19 -47 -17 -60 9 -77 26 -17 26 -17 15 4 -14 27 -5
74 13 63 8 -5 8 -2 -1 9 -9 11 -10 18 -2 23 5 3 10 16 10 27 0 12 3 19 6 16 3
-3 5 -24 6 -46 0 -24 6 -43 14 -46 8 -3 11 0 8 8 -4 11 6 14 40 12 32 -1 42
-4 35 -12 -7 -8 -5 -14 3 -17 8 -3 6 -6 -6 -6 -15 -1 -16 -3 -6 -16 12 -14 9
-15 -21 -10 -25 4 -30 3 -19 -5 13 -9 13 -11 0 -20 -13 -9 -13 -11 0 -20 8 -6
28 -13 43 -17 l28 -6 -24 -16 c-13 -9 -22 -22 -19 -29 3 -11 0 -12 -18 -2 -18
10 -20 14 -9 21 11 7 10 9 -3 9 -12 0 -18 8 -18 23 0 16 -6 22 -23 23 -14 1
-24 -4 -24 -12 0 -7 5 -10 10 -7 6 3 7 1 3 -5 -4 -7 -15 -12 -24 -13 -11 -1
-8 -4 8 -9 25 -8 25 -8 2 -9 -13 -1 -21 -5 -18 -10 7 -10 25 -9 43 2 7 5 13
-1 15 -15 4 -29 56 -57 69 -37 4 7 5 17 2 23 -3 5 -1 6 5 2 6 -3 17 1 25 9 19
18 28 19 21 2 -2 -7 3 -13 13 -13 10 -1 31 -4 48 -7 17 -4 32 -2 36 5 4 6 23
12 43 12 37 2 62 15 30 17 -10 1 -22 1 -26 0 -4 0 -5 6 -2 14 4 11 11 12 24 5
12 -6 23 -5 36 5 18 13 18 14 -3 34 -27 25 -33 26 -33 5 0 -26 -23 -10 -26 19
-2 25 0 27 37 27 24 0 38 -4 34 -10 -3 -5 0 -10 7 -11 101 -7 132 -4 121 14
-3 6 -1 7 6 3 6 -4 9 -12 6 -17 -10 -14 11 -10 24 5 9 11 9 15 -1 19 -8 4 -7
6 5 6 9 1 17 -6 17 -14 0 -8 -5 -15 -12 -15 -6 0 -5 -7 5 -18 13 -15 14 -21 4
-32 -9 -10 -9 -11 1 -6 7 4 12 1 12 -9 0 -12 8 -15 35 -12 25 3 35 0 35 -10 0
-8 -5 -11 -10 -8 -5 3 -10 1 -10 -4 0 -6 7 -11 15 -11 8 0 15 4 15 9 0 13 51
3 70 -13 24 -21 41 -9 29 21 -5 15 -7 33 -5 40 3 8 2 12 -3 9 -5 -3 -12 1 -15
10 -13 35 -8 36 79 19 25 -5 28 -44 6 -63 -14 -10 -13 -11 4 -6 19 5 19 5 3
-9 -27 -21 -22 -32 16 -34 19 -2 44 -7 57 -13 21 -9 20 -10 -13 -7 -21 2 -38
-1 -38 -6 0 -26 -35 -40 -96 -41 -35 0 -64 -4 -64 -8 0 -5 -6 -6 -12 -2 -7 5
-55 9 -108 10 -52 0 -99 2 -105 4 -22 5 -44 -1 -60 -16 -22 -23 -6 -31 54 -28
31 1 48 -2 48 -9 0 -7 -11 -13 -24 -13 -12 -1 -20 2 -17 7 3 5 -1 9 -9 9 -23
0 -28 -25 -6 -28 11 -1 28 -3 40 -4 18 -2 19 -4 4 -14 -14 -10 -11 -12 18 -9
39 4 68 -9 43 -18 -8 -3 -18 -2 -21 3 -4 6 -11 10 -17 10 -11 0 20 -25 57 -47
11 -6 19 -16 17 -23 -1 -6 2 -9 8 -5 6 3 8 10 5 15 -3 4 2 13 10 20 24 20 19
-12 -7 -46 -22 -29 -22 -29 -1 -11 12 11 26 16 31 13 5 -3 7 6 4 19 -3 20 -1
24 12 19 9 -3 13 -10 10 -15 -3 -5 3 -9 13 -9 11 0 25 -6 32 -12 7 -7 12 -8
11 -3 -2 6 -2 19 -1 30 1 18 2 19 12 2 7 -12 6 -23 -4 -38 -13 -17 -16 -18
-29 -5 -10 9 -20 11 -29 5 -11 -7 -11 -9 3 -9 9 0 20 -5 24 -12 4 -7 3 -8 -4
-4 -7 4 -12 1 -12 -8 0 -9 -3 -16 -7 -17 -23 -2 -46 -8 -51 -13 -5 -6 22 -3
96 9 12 2 22 -1 22 -8 0 -8 3 -8 12 1 7 7 21 12 32 12 10 0 16 3 13 7 -4 3
-21 6 -39 6 -18 0 -25 2 -15 4 16 4 22 16 18 36 -1 5 3 6 8 3 5 -4 12 -2 16 4
10 16 26 12 23 -6 -2 -10 4 -19 12 -21 13 -4 13 -3 0 7 -13 10 -12 11 3 6 10
-3 23 -6 28 -6 5 0 9 -7 9 -16 0 -9 5 -12 12 -8 7 5 8 3 2 -7 -16 -26 -13 -38
9 -33 11 2 28 -2 36 -8 13 -10 14 -10 4 2 -7 8 -13 17 -13 21 0 10 39 -1 47
-14 3 -6 1 -7 -6 -3 -6 4 -11 4 -10 -1 3 -18 -2 -34 -9 -29 -4 2 -14 1 -22 -5
-10 -6 -11 -9 -2 -9 6 0 12 -7 12 -15 0 -11 7 -14 24 -9 29 7 43 -11 24 -33
-11 -14 -8 -13 15 1 19 13 27 15 27 5 0 -7 3 -9 6 -6 4 4 1 13 -6 22 -7 9 -10
18 -6 22 3 3 6 1 6 -6 0 -7 5 -9 10 -6 6 3 10 -4 11 -17 0 -13 3 -18 5 -12 3
7 14 10 24 7 20 -5 27 -19 12 -25 -4 -2 0 -11 10 -20 15 -15 18 -15 18 -3 0 8
-6 15 -12 15 -9 0 -8 3 2 9 8 6 18 7 22 5 4 -3 8 68 8 157 0 142 -2 163 -17
175 -17 13 -17 14 0 8 14 -5 17 0 17 37 0 43 -1 44 -36 46 -19 1 -47 9 -60 18
-14 9 -29 13 -34 10 -4 -3 -32 6 -62 20 -29 14 -43 22 -32 20 18 -5 21 -2 16
20 -3 17 0 25 9 26 8 0 5 5 -6 10 -19 9 -19 9 2 5 12 -2 24 1 27 8 3 6 3 -2 1
-19 -3 -16 -2 -24 1 -17 8 17 24 15 24 -2 0 -8 4 -17 9 -20 5 -4 7 2 4 13 -3
13 2 20 20 23 14 3 33 1 42 -4 10 -6 21 -6 28 1 9 7 16 5 25 -10 7 -10 8 -19
3 -19 -5 0 -11 5 -13 11 -2 7 -10 3 -18 -7 -8 -11 -10 -16 -6 -12 5 4 15 3 22
-3 7 -6 18 -8 24 -4 12 8 9 37 -5 47 -6 5 -5 8 2 8 10 0 13 84 12 380 0 233
-4 380 -10 380 -5 0 -9 5 -9 11 0 5 5 7 10 4 6 -4 10 20 10 65 0 54 -3 69 -12
64 -10 -6 -9 -3 0 8 10 13 13 60 11 197 -1 99 -5 178 -10 176 -4 -3 -9 2 -13
10 -3 8 -1 17 4 20 6 4 10 12 10 18 0 8 -3 8 -9 -1 -6 -10 -13 -5 -29 20 -11
18 -24 45 -27 61 -4 15 -11 27 -16 27 -5 0 -9 7 -9 16 0 9 -10 30 -22 46 -12
17 -21 44 -21 60 0 16 -4 24 -8 17 -3 -6 -10 25 -14 70 -8 86 -29 116 -23 32
3 -49 3 -49 -17 -33 -29 24 -35 34 -35 60 0 18 -5 22 -33 22 -32 0 -33 -1 -43
-57 -12 -62 -10 -73 8 -55 20 20 26 14 36 -35 12 -55 5 -74 -16 -47 -14 18
-14 18 -8 1 3 -10 6 -21 6 -23 0 -2 7 -4 16 -4 10 0 14 -6 11 -14 -3 -8 0 -17
7 -19 8 -3 12 -22 12 -50 -1 -25 2 -43 5 -41 4 2 6 -7 5 -21 -1 -20 -3 -22
-11 -11 -9 11 -12 11 -24 -1 -11 -12 -10 -18 8 -37 12 -12 21 -26 21 -31 0 -5
-7 0 -15 11 -8 10 -15 14 -15 7 0 -23 13 -43 29 -44 12 0 11 -2 -4 -8 -16 -7
-21 -3 -27 18 -5 14 -6 32 -3 39 2 6 0 12 -4 12 -5 0 -14 24 -21 53 -11 53
-47 197 -57 231 -4 14 -2 16 8 11 8 -5 6 1 -4 12 -18 20 -18 21 5 38 21 16 21
17 3 13 -25 -6 -33 27 -9 36 7 3 13 2 11 -2 -1 -4 3 -8 8 -10 6 -2 11 4 13 12
3 14 -15 16 -130 16 -131 0 -134 0 -135 -22 -2 -18 0 -20 7 -8 8 13 11 13 19
1 7 -11 9 -11 14 0 3 8 6 9 6 4 1 -6 -10 -22 -24 -37 -14 -15 -25 -32 -25 -38
0 -15 -47 -31 -77 -26 -20 4 -23 3 -13 -10 7 -7 28 -14 47 -14 30 0 34 -2 23
-15 -6 -8 -8 -20 -4 -27 4 -7 4 -10 -1 -6 -12 11 -45 -11 -45 -30 0 -13 2 -14
9 -3 12 19 51 4 51 -20 0 -11 -10 -24 -22 -30 -22 -9 -21 -9 3 -4 23 4 28 1
34 -23 7 -25 8 -25 15 -7 5 11 9 16 10 10 0 -5 7 1 15 15 l14 25 10 -25 c7
-19 10 -20 10 -7 1 11 6 15 12 11 6 -3 15 0 20 7 5 9 7 3 5 -16 -2 -17 0 -35
5 -41 5 -6 0 -17 -11 -27 -19 -16 -20 -16 -20 2 0 10 -6 24 -14 30 -11 9 -18
6 -34 -14 -18 -22 -19 -30 -10 -51 7 -16 8 -28 2 -32 -11 -9 -16 -29 -16 -63
0 -21 -5 -28 -24 -32 -16 -3 -24 0 -24 10 0 8 4 12 9 9 5 -3 12 1 15 9 4 12 0
14 -17 9 -20 -4 -25 0 -36 34 -8 22 -10 46 -6 52 5 9 4 11 -3 6 -7 -4 -12 -3
-12 3 0 5 5 13 10 16 6 3 10 12 10 18 0 8 -3 8 -9 -2 -12 -19 -21 -1 -28 54
-3 30 -1 51 8 63 12 15 12 16 -2 5 -9 -7 -19 -10 -22 -7 -3 3 -5 -10 -4 -30 1
-20 5 -36 8 -36 3 0 4 -24 3 -54 -2 -46 0 -54 13 -49 13 5 15 0 11 -25 -3 -19
-1 -29 5 -25 6 4 8 -3 5 -15 -4 -16 0 -23 15 -28 20 -6 20 -7 -4 -25 -46 -35
-80 -20 -78 34 0 16 2 18 7 7 4 -8 16 -17 26 -18 17 -3 18 -2 7 12 -8 9 -10
16 -5 16 5 0 1 5 -9 11 -19 11 -41 50 -51 91 -5 23 -3 26 10 21 12 -4 15 -2
12 8 -3 8 -12 13 -19 11 -8 -2 -11 0 -7 4 4 4 3 13 -3 21 -9 9 -8 13 0 13 6 0
11 7 11 15 0 8 -4 14 -9 12 -5 -1 -9 0 -9 3 0 3 -5 18 -11 33 -7 18 -7 26 -1
22 6 -3 10 -1 10 4 0 6 -5 11 -10 11 -6 0 -9 15 -8 33 2 21 -1 31 -9 30 -15
-3 -17 13 -3 22 6 3 10 1 10 -4 0 -12 52 -15 63 -4 4 3 3 11 -2 17 -6 7 -4 21
4 36 8 14 14 19 15 12 0 -7 5 -10 10 -7 17 10 0 26 -21 20 -10 -4 -28 -3 -40
0 -17 6 -18 9 -7 23 10 12 10 14 1 8 -8 -4 -13 -2 -13 6 0 10 -3 9 -11 -2 -8
-11 -12 -12 -16 -2 -7 18 -31 15 -36 -5 -4 -15 -5 -15 -6 -2 -1 17 -61 25 -61
8 0 -5 5 -9 11 -9 8 0 9 -4 0 -13 -6 -8 -8 -17 -4 -21 4 -3 10 -29 13 -57 5
-38 4 -49 -6 -45 -16 6 -28 -10 -14 -19 5 -3 10 -15 10 -26 0 -17 -11 -24 -33
-20 -4 1 -2 -9 5 -21 11 -21 13 -21 16 -5 2 12 9 16 19 13 11 -4 13 -1 8 14
-4 12 -2 20 5 20 6 0 9 -4 6 -9 -4 -5 -1 -11 4 -13 6 -2 12 -10 13 -18 2 -8 5
-19 8 -25 8 -12 22 -81 24 -117 1 -15 8 -41 15 -58 10 -25 10 -34 1 -39 -11
-7 -5 -41 8 -41 3 0 7 -28 7 -63 1 -34 0 -56 -3 -49 -3 6 -11 12 -19 12 -8 0
-14 9 -14 21 0 11 -4 18 -10 14 -5 -3 -7 -12 -4 -20 4 -11 -1 -13 -23 -9 -21
3 -24 2 -13 -6 13 -8 13 -10 -2 -10 -10 0 -18 8 -19 18 -1 31 -20 127 -35 179
-5 19 -3 22 15 18 12 -2 19 0 16 6 -4 5 -12 9 -18 9 -32 1 -114 127 -101 155
3 5 -1 2 -10 -9 -17 -21 -9 -42 44 -121 15 -22 30 -56 34 -75 3 -19 8 -45 10
-57 10 -48 -36 -10 -55 46 -6 17 -13 30 -15 28 -9 -9 18 -63 46 -92 26 -28 36
-59 46 -143 1 -12 -2 -20 -7 -16 -5 3 -7 10 -4 15 3 5 -1 6 -9 3 -23 -9 -20
-34 4 -34 11 0 20 -7 20 -15 0 -8 -4 -15 -10 -15 -5 0 -10 5 -10 11 0 5 -5 7
-11 4 -6 -4 -8 -13 -6 -19 3 -7 2 -28 -3 -47 -8 -33 -8 -33 -9 -5 -1 24 -3 27
-16 16 -8 -7 -12 -16 -9 -21 3 -5 -2 -6 -10 -3 -12 5 -11 9 5 25 22 22 24 42
5 58 -11 9 -12 6 -8 -14 2 -15 -2 -33 -10 -43 -28 -32 -33 -46 -15 -39 10 3
17 2 17 -4 0 -6 4 -8 9 -5 11 7 23 -20 25 -57 0 -16 -4 -27 -11 -27 -12 0 -17
21 -16 58 1 6 -3 12 -9 12 -5 0 -6 -15 -3 -32 10 -60 13 -103 7 -113 -9 -15
-10 -45 0 -39 4 3 8 0 8 -5 0 -6 -4 -11 -9 -11 -6 0 -6 -12 1 -31 6 -16 8 -33
4 -36 -3 -4 -6 -1 -6 5 0 7 -4 12 -9 12 -5 0 -7 -9 -4 -20 3 -11 9 -17 14 -14
5 3 9 0 9 -5 0 -6 -4 -11 -10 -11 -5 0 -10 -14 -10 -32 0 -30 1 -31 15 -12 13
17 14 14 15 -41 0 -40 -3 -55 -9 -45 -6 8 -8 17 -5 21 2 4 0 10 -6 14 -6 3
-10 -4 -11 -17 -1 -23 -1 -23 -9 2 -6 16 -7 1 -4 -45 7 -105 4 -197 -7 -215
-8 -12 -9 -10 -8 10 3 64 -2 161 -8 157 -5 -3 -7 34 -7 81 2 105 4 116 14 77
l8 -30 1 31 c0 17 -2 34 -6 38 -8 8 -9 15 -19 341 -4 121 -9 222 -11 225 -2 2
-3 -126 -3 -285 1 -252 -3 -391 -15 -497 -1 -16 -3 -46 -4 -68 0 -22 -6 -40
-12 -40 -7 0 -8 24 -4 76 5 45 4 74 -1 71 -5 -3 -11 -34 -12 -68 -4 -90 -12
-86 -13 7 -1 43 -2 116 -3 162 -2 46 1 85 6 88 4 3 8 13 8 22 0 15 -2 15 -10
2 -8 -13 -10 -13 -10 2 0 9 6 18 13 21 9 3 8 13 -6 37 -10 18 -15 35 -12 38 3
3 5 0 5 -7 0 -7 4 -10 9 -6 9 5 8 30 -5 83 -3 14 -1 21 5 18 5 -4 13 -1 17 5
4 8 3 9 -4 5 -7 -4 -12 -3 -12 3 0 12 -41 5 -49 -8 -3 -5 -11 -3 -18 4 -10 11
-5 15 26 20 34 6 37 9 33 31 -2 13 -8 24 -13 24 -5 0 -6 8 -3 18 3 9 -2 5 -11
-10 -22 -39 -35 -35 -30 10 2 20 1 31 -2 24 -2 -6 -10 -9 -15 -6 -7 4 -8 2 -4
-4 4 -7 3 -19 -1 -27 -7 -11 -9 -5 -10 20 -1 19 3 35 8 35 5 0 12 18 15 40 4
22 10 37 15 34 5 -3 6 2 3 10 -3 9 -10 13 -15 10 -6 -3 -16 -1 -23 5 -11 9
-18 8 -30 -4 -9 -9 -16 -11 -16 -5 0 6 7 13 15 16 8 4 15 12 15 20 0 8 4 14 8
14 4 0 8 10 9 23 0 12 -1 17 -4 10 -2 -7 -11 -9 -19 -6 -11 4 -9 10 11 29 14
13 22 24 18 24 -5 0 -14 -5 -21 -12 -9 -9 -12 -9 -12 0 0 6 -6 9 -14 6 -27
-10 -16 53 12 73 62 45 66 50 52 58 -9 5 -11 4 -6 -3 4 -7 -2 -16 -16 -21 -13
-5 -30 -16 -37 -25 -23 -27 -26 -19 -23 55 3 49 0 69 -7 65 -7 -5 -11 12 -11
53 0 34 -4 61 -10 61 -5 0 -10 -9 -10 -20 0 -11 -5 -20 -11 -20 -5 0 -7 5 -4
10 3 6 0 10 -7 10 -10 0 -9 3 1 9 12 7 12 13 3 24 -7 7 -11 16 -9 18 1 2 -5
-5 -14 -15 -16 -19 -18 -19 -43 -3 -14 10 -26 21 -26 24 0 4 5 2 12 -5 15 -15
31 -16 22 0 -5 7 -2 9 9 5 11 -4 14 -2 10 8 -3 8 -9 12 -14 9 -5 -3 -9 4 -9
15 0 22 -16 29 -22 9 -6 -17 -28 0 -28 22 0 10 6 23 12 27 7 4 19 15 26 24 11
14 9 17 -12 21 -22 4 -24 3 -15 -13 7 -15 6 -17 -6 -13 -8 4 -15 9 -15 14 0 4
-9 17 -20 30 -23 26 -27 48 -6 31 11 -9 15 -9 19 1 3 8 6 6 6 -5 1 -10 6 -15
11 -12 6 3 13 -1 16 -9 3 -9 10 -13 16 -10 5 3 4 12 -4 21 -7 9 -13 19 -13 22
0 3 -80 7 -177 8 -163 1 -178 0 -183 -17 -6 -18 -42 -33 -57 -24 -4 3 -8 15
-9 27 -1 20 -2 20 -9 -3 -8 -24 -8 -24 -9 -2 -1 17 -7 22 -26 22 l-25 0 0
-342z m210 272 l-7 -45 -2 41 c0 22 2 44 6 47 10 11 11 5 3 -43z m946 18 c4
-7 3 -8 -4 -4 -7 4 -12 2 -12 -4 0 -6 7 -13 16 -17 13 -5 13 -7 2 -14 -22 -15
-28 -10 -28 21 0 30 13 40 26 18z m-1026 -8 c0 -5 -2 -10 -4 -10 -3 0 -8 5
-11 10 -3 6 -1 10 4 10 6 0 11 -4 11 -10z m330 -14 c0 -11 -19 -15 -25 -6 -3
5 1 10 9 10 9 0 16 -2 16 -4z m-350 -72 c0 -8 -9 -14 -20 -14 -14 0 -18 -5
-13 -17 5 -15 3 -14 -10 2 -8 11 -13 23 -11 27 3 5 -1 8 -8 8 -11 0 -11 2 0 9
19 12 62 1 62 -15z m92 -1 c-3 -16 -7 -22 -10 -15 -4 13 4 42 11 42 2 0 2 -12
-1 -27z m209 -21 c-6 -2 -11 -8 -11 -13 0 -4 8 -6 18 -2 9 3 14 3 10 -2 -4 -4
-1 -13 6 -20 15 -15 9 -85 -8 -85 -20 1 -49 50 -37 64 6 7 8 15 5 19 -3 3 -7
20 -8 37 -2 22 2 29 11 26 7 -3 14 0 14 7 1 7 4 3 6 -8 3 -10 0 -21 -6 -23z
m1047 -54 c-2 -23 -9 -43 -16 -46 -6 -2 -12 1 -12 8 0 6 4 9 9 5 6 -3 9 4 8
15 -1 10 -7 22 -15 25 -11 4 -11 7 0 19 22 25 29 18 26 -26z m-1278 -5 c-15
-70 -19 -78 -14 -28 6 47 11 65 19 65 1 0 -1 -17 -5 -37z m1180 33 c0 -3 -4
-8 -10 -11 -5 -3 -10 -1 -10 4 0 6 5 11 10 11 6 0 10 -2 10 -4z m214 -61 c4
-35 3 -44 -3 -30 -10 20 -15 92 -7 84 3 -3 7 -27 10 -54z m176 2 c0 -5 -4 -5
-10 -2 -5 3 -10 14 -10 23 0 15 2 15 10 2 5 -8 10 -19 10 -23z m-1704 -2 c0
-14 -6 -25 -12 -25 -7 0 -11 11 -10 25 0 14 6 25 12 25 7 0 11 -11 10 -25z
m449 -17 c-4 7 0 12 9 12 10 0 16 -9 16 -21 0 -15 -5 -19 -15 -15 -8 3 -15 1
-15 -3 0 -5 5 -11 12 -13 20 -7 17 -36 -4 -41 -11 -3 -17 -3 -14 0 3 3 -3 16
-13 29 -11 15 -16 33 -13 53 l4 31 20 -23 c11 -12 17 -16 13 -9z m879 -3 c-4
-8 -11 -12 -16 -9 -6 4 -5 10 3 15 19 12 19 11 13 -6z m-837 -17 c-3 -8 -6 -5
-6 6 -1 11 2 17 5 13 3 -3 4 -12 1 -19z m1240 -25 c39 -89 41 -99 31 -116 -5
-9 -14 -17 -20 -17 -6 0 -8 3 -5 7 4 3 2 12 -3 18 -6 7 -9 23 -7 36 2 13 -2
28 -9 34 -16 12 -30 85 -16 85 5 0 18 -21 29 -47z m-1512 -3 c-3 -5 -12 -10
-18 -10 -7 0 -6 4 3 10 19 12 23 12 15 0z m1325 -21 c0 -5 -4 -9 -10 -9 -5 0
-10 7 -10 16 0 8 5 12 10 9 6 -3 10 -10 10 -16z m-1513 -6 c0 -9 -4 -10 -14
-2 -7 6 -13 12 -13 14 0 1 6 2 13 2 8 0 14 -6 14 -14z m80 -30 c-3 -10 -5 -2
-5 17 0 19 2 27 5 18 2 -10 2 -26 0 -35z m460 31 c-3 -3 -12 -4 -19 -1 -8 3
-5 6 6 6 11 1 17 -2 13 -5z m-490 -10 c-3 -3 -12 -4 -19 -1 -8 3 -5 6 6 6 11
1 17 -2 13 -5z m1497 -25 c-2 -4 0 -10 6 -14 13 -8 13 -65 0 -65 -5 0 -10 15
-11 33 0 17 -2 43 -5 57 -3 18 -2 21 5 10 5 -8 8 -17 5 -21z m-1559 -37 c-4
-28 -12 -42 -26 -45 -10 -3 -19 -1 -19 4 0 5 5 9 10 9 6 0 10 8 10 18 0 15 -2
15 -11 2 -9 -12 -9 -11 -4 5 4 11 8 25 8 32 0 7 4 10 9 7 4 -3 8 3 8 12 0 13
3 15 11 7 7 -7 9 -26 4 -51z m515 48 c0 -5 -2 -10 -4 -10 -3 0 -8 5 -11 10 -3
6 -1 10 4 10 6 0 11 -4 11 -10z m43 -21 c4 -16 3 -18 -9 -8 -7 6 -11 15 -8 20
8 13 11 11 17 -12z m7 -68 c0 -13 -2 -13 -9 -2 -5 8 -11 9 -15 3 -3 -6 -2 -13
4 -17 13 -8 13 -35 0 -35 -5 0 -7 6 -4 14 4 10 -2 12 -19 9 -23 -5 -24 -6 -9
-22 10 -9 25 -15 35 -13 15 4 18 0 15 -18 -1 -13 -9 -26 -17 -28 -10 -3 -12 0
-8 11 5 14 2 15 -20 6 -14 -5 -28 -7 -31 -4 -3 3 0 5 7 5 7 0 9 5 5 11 -3 6 0
15 7 20 10 6 6 9 -13 9 -30 0 -38 17 -13 26 11 5 12 10 5 18 -7 9 -5 19 6 32
11 13 17 15 20 7 9 -22 22 -14 17 10 l-5 22 21 -24 c12 -13 21 -31 21 -40z
m-200 29 c0 -5 -4 -10 -10 -10 -5 0 -10 5 -10 10 0 6 5 10 10 10 6 0 10 -4 10
-10z m-102 -16 c4 2 8 -9 8 -25 1 -19 -3 -29 -13 -29 -8 0 -11 5 -8 10 3 6 1
10 -4 10 -6 0 -9 10 -7 23 6 32 7 33 13 19 2 -6 8 -10 11 -8z m1271 -31 c-1
-38 -1 -38 -9 -9 -8 27 -6 46 6 46 2 0 4 -17 3 -37z m241 11 c0 -8 -4 -12 -10
-9 -5 3 -10 10 -10 16 0 5 5 9 10 9 6 0 10 -7 10 -16z m-366 -9 c-4 -8 -8 -15
-10 -15 -2 0 -4 7 -4 15 0 8 4 15 10 15 5 0 7 -7 4 -15z m-1425 -49 c-1 -21
-3 -25 -6 -11 -3 11 -12 24 -19 28 -18 10 -8 28 11 20 9 -3 15 -17 14 -37z
m1606 14 c8 -36 -5 -63 -16 -34 -11 27 -11 64 0 64 5 0 12 -13 16 -30z m-1518
-2 c-3 -8 -6 -5 -6 6 -1 11 2 17 5 13 3 -3 4 -12 1 -19z m110 16 c-3 -3 -12
-4 -19 -1 -8 3 -5 6 6 6 11 1 17 -2 13 -5z m1167 -9 c-4 -8 -10 -15 -15 -15
-5 0 -9 -7 -9 -15 0 -8 -5 -15 -12 -15 -6 0 -4 -6 5 -12 16 -12 16 -14 0 -24
-14 -9 -21 -8 -31 2 -7 8 -9 14 -5 14 4 0 1 5 -7 10 -13 9 -13 11 0 20 8 5 22
7 30 4 8 -3 11 -2 8 2 -4 3 3 15 15 25 27 23 28 23 21 4z m-1219 -4 c3 -5 2
-12 -3 -15 -5 -3 -9 1 -9 9 0 17 3 19 12 6z m1289 -12 c-3 -5 0 -9 7 -9 7 0
10 -2 7 -5 -9 -9 -38 7 -38 21 0 8 6 11 15 8 8 -4 12 -10 9 -15z m230 13 c2
-4 -4 -8 -15 -8 -10 0 -19 4 -19 8 0 4 6 8 14 8 8 0 17 -4 20 -8z m-1480 -29
c19 -23 19 -23 -2 -23 -17 0 -22 6 -22 27 0 14 1 24 3 22 1 -2 11 -14 21 -26z
m1631 17 c3 -5 1 -10 -4 -10 -6 0 -11 5 -11 10 0 6 2 10 4 10 3 0 8 -4 11 -10z
m-1535 -10 c-8 -5 -19 -10 -25 -10 -5 0 -3 5 5 10 8 5 20 10 25 10 6 0 3 -5
-5 -10z m3 -50 c3 -13 0 -20 -9 -20 -8 0 -13 9 -12 24 3 28 13 26 21 -4z m969
-2 c-6 -23 -22 -34 -22 -14 0 8 -5 18 -12 22 -7 4 -8 3 -4 -4 4 -6 8 -35 10
-64 l4 -52 -19 25 c-23 30 -24 39 -3 39 8 0 12 5 9 10 -4 6 -12 7 -18 3 -7 -4
-5 2 3 12 14 17 13 18 -2 12 -10 -3 -18 -5 -18 -3 0 3 -3 12 -6 20 -5 14 1 16
39 15 38 -2 44 -5 39 -21z m-1060 5 c-10 -4 -10 -8 -1 -19 15 -18 5 -29 -18
-20 -15 6 -15 8 -3 16 8 6 11 10 7 10 -5 0 -5 5 -2 10 3 6 12 10 18 9 8 0 8
-2 -1 -6z m25 -25 c-3 -7 -5 -2 -5 12 0 14 2 19 5 13 2 -7 2 -19 0 -25z m233
-14 c0 -19 -35 -22 -56 -6 -18 14 -18 14 -1 8 30 -10 40 4 20 27 l-18 21 27
-20 c15 -10 28 -24 28 -30z m105 26 c-3 -5 -12 -10 -18 -10 -7 0 -6 4 3 10 19
12 23 12 15 0z m820 -34 c-1 -37 -12 -59 -27 -50 -6 4 -8 2 -5 -3 4 -6 0 -16
-8 -23 -12 -10 -16 -9 -21 4 -3 9 -1 22 5 30 6 7 7 16 3 21 -4 4 3 3 15 -4 25
-13 35 1 22 35 -5 13 -3 21 4 21 7 0 12 -14 12 -31z m415 30 c0 -3 -4 -8 -10
-11 -5 -3 -10 -1 -10 4 0 6 5 11 10 11 6 0 10 -2 10 -4z m-1260 -16 c8 -5 11
-12 8 -16 -10 -9 -38 3 -38 16 0 12 10 13 30 0z m1295 1 c3 -5 1 -12 -5 -16
-5 -3 -10 1 -10 9 0 18 6 21 15 7z m-1688 -23 c-3 -8 -6 -5 -6 6 -1 11 2 17 5
13 3 -3 4 -12 1 -19z m146 2 c-3 -11 -9 -20 -13 -20 -5 0 -6 9 -3 20 3 11 9
20 13 20 5 0 6 -9 3 -20z m341 5 c-4 -8 -8 -15 -10 -15 -2 0 -4 7 -4 15 0 8 4
15 10 15 5 0 7 -7 4 -15z m726 5 c0 -5 -5 -10 -11 -10 -5 0 -7 5 -4 10 3 6 8
10 11 10 2 0 4 -4 4 -10z m-75 -9 c9 -16 -9 -20 -23 -5 -10 12 -10 14 2 14 8
0 17 -4 21 -9z m-1164 -37 c6 -7 3 -16 -6 -24 -13 -11 -15 -7 -14 26 0 22 3
32 6 24 3 -8 10 -20 14 -26z m85 24 c4 -6 2 -14 -4 -16 -6 -2 -8 -10 -5 -18 3
-8 2 -31 -2 -51 -6 -32 -8 -35 -17 -20 -6 12 -6 22 2 32 6 7 7 15 2 17 -11 4
-3 68 9 68 4 0 11 -5 15 -12z m21 -10 c-3 -8 -6 -5 -6 6 -1 11 2 17 5 13 3 -3
4 -12 1 -19z m829 7 c-3 -8 0 -15 7 -16 9 0 9 -2 0 -6 -10 -3 -10 -8 1 -19 20
-20 22 -18 20 16 -1 16 2 27 7 24 5 -3 6 -11 2 -17 -5 -9 -2 -8 8 0 13 10 16
10 17 0 4 -64 13 -130 18 -138 13 -22 -5 -6 -21 17 -10 16 -13 29 -8 33 6 3 1
15 -10 26 -11 11 -17 15 -14 9 8 -13 -20 -27 -35 -18 -5 3 -7 12 -4 20 3 8 1
14 -4 14 -6 0 -10 9 -10 21 0 11 -4 17 -10 14 -5 -3 -10 0 -10 9 0 15 14 24
39 25 8 1 11 -5 7 -14z m663 -27 c1 -5 -3 -8 -9 -8 -5 0 -10 12 -9 28 0 24 1
25 9 7 5 -11 9 -23 9 -27z m-1566 -15 c-9 -23 -20 -14 -15 13 3 17 7 22 12 13
5 -7 6 -18 3 -26z m305 9 c-2 -8 -12 -16 -24 -17 -18 -1 -19 2 -10 21 11 24
39 21 34 -4z m222 -27 c0 -7 -6 -15 -13 -18 -10 -4 -13 2 -9 19 4 24 22 24 22
-1z m607 -7 c-3 -7 -5 -2 -5 12 0 14 2 19 5 13 2 -7 2 -19 0 -25z m233 17 c0
-9 -6 -12 -15 -9 -8 4 -12 10 -9 15 8 14 24 10 24 -6z m135 -5 c3 -5 1 -10 -4
-10 -6 0 -11 5 -11 10 0 6 2 10 4 10 3 0 8 -4 11 -10z m-1195 -20 c-20 -13
-40 -12 -40 1 0 5 4 8 8 5 4 -2 14 -1 22 4 8 5 17 7 19 4 3 -3 -1 -9 -9 -14z
m40 16 c0 -3 -4 -8 -10 -11 -5 -3 -10 -1 -10 4 0 6 5 11 10 11 6 0 10 -2 10
-4z m813 -11 c4 -8 3 -16 -1 -19 -4 -3 -9 4 -9 15 -2 23 3 25 10 4z m-1164
-60 c-2 -73 -14 -79 -14 -7 0 34 -4 47 -14 47 -8 0 -16 6 -18 13 -3 7 5 12 22
12 26 0 26 -1 24 -65z m251 55 c0 -5 -4 -10 -10 -10 -5 0 -10 5 -10 10 0 6 5
10 10 10 6 0 10 -4 10 -10z m842 -22 c-8 -8 -9 -4 -5 13 4 13 8 18 11 10 2 -7
-1 -18 -6 -23z m108 12 c0 -5 -5 -10 -11 -10 -5 0 -7 5 -4 10 3 6 8 10 11 10
2 0 4 -4 4 -10z m-1060 -28 c0 -13 -12 -22 -22 -16 -10 6 -1 24 13 24 5 0 9
-4 9 -8z m1372 -17 c-2 -14 -6 -25 -8 -25 -2 0 -4 11 -4 25 0 14 4 25 9 25 4
0 6 -11 3 -25z m-1542 -25 c0 -29 -4 -40 -15 -40 -16 0 -19 20 -9 58 10 36 24
25 24 -18z m960 36 c0 -3 -4 -8 -10 -11 -5 -3 -10 -1 -10 4 0 6 5 11 10 11 6
0 10 -2 10 -4z m-883 -28 c2 -17 0 -19 -7 -8 -5 8 -6 18 -4 22 8 12 10 10 11
-14z m1241 -9 c-3 -8 -7 -3 -11 10 -4 17 -3 21 5 13 5 -5 8 -16 6 -23z m38 6
c-3 -23 -12 -26 -13 -5 -1 11 2 20 7 20 4 0 7 -7 6 -15z m-1419 -27 c-3 -7 -5
-2 -5 12 0 14 2 19 5 13 2 -7 2 -19 0 -25z m231 23 c15 -9 7 -77 -10 -87 -17
-11 -21 6 -11 41 6 19 7 33 2 29 -5 -3 -9 2 -9 10 0 18 8 20 28 7z m1440 -16
c-3 -3 -9 2 -12 12 -6 14 -5 15 5 6 7 -7 10 -15 7 -18z m-323 4 c16 2 17 1 6
-12 -7 -9 -19 -13 -28 -10 -13 5 -13 3 -2 -15 7 -12 9 -25 5 -29 -5 -4 -11 -2
-13 5 -3 6 -12 12 -21 13 -11 0 -12 2 -4 6 6 2 10 9 6 14 -3 5 0 9 6 9 7 0 9
7 6 16 -4 10 -2 13 7 7 6 -4 21 -6 32 -4z m-265 -41 c0 -30 -24 -15 -27 16 -2
23 0 26 13 16 7 -7 14 -21 14 -32z m155 32 c3 -5 1 -10 -4 -10 -6 0 -11 5 -11
10 0 6 2 10 4 10 3 0 8 -4 11 -10z m362 4 c-3 -3 -12 -4 -19 -1 -8 3 -5 6 6 6
11 1 17 -2 13 -5z m37 -10 c3 -8 2 -12 -4 -9 -6 3 -10 10 -10 16 0 14 7 11 14
-7z m-1157 -14 c-1 -11 -5 -20 -9 -20 -10 0 -10 4 -2 24 8 22 13 20 11 -4z
m563 10 c0 -5 -7 -7 -15 -4 -8 4 -15 8 -15 10 0 2 7 4 15 4 8 0 15 -4 15 -10z
m400 -6 c0 -8 -4 -12 -10 -9 -5 3 -10 10 -10 16 0 5 5 9 10 9 6 0 10 -7 10
-16z m-536 -1 c-5 -5 -12 -12 -16 -18 -4 -6 -8 -2 -8 8 0 9 7 17 17 17 9 0 12
-3 7 -7z m683 -7 c-4 -9 2 -17 14 -21 20 -7 28 -59 9 -70 -6 -3 -7 1 -4 9 5
12 0 16 -17 16 -21 1 -22 2 -6 11 21 12 22 29 3 29 -9 0 -14 9 -13 20 1 11 5
20 10 20 5 0 7 -7 4 -14z m33 -7 c0 -5 -4 -9 -10 -9 -5 0 -10 7 -10 16 0 8 5
12 10 9 6 -3 10 -10 10 -16z m-1255 1 c3 -5 1 -10 -4 -10 -6 0 -11 5 -11 10 0
6 2 10 4 10 3 0 8 -4 11 -10z m-315 -42 c0 -32 -15 -19 -17 15 -2 23 0 28 7
17 5 -8 10 -23 10 -32z m1403 22 c-5 -19 -23 -29 -23 -12 0 7 20 32 26 32 1 0
0 -9 -3 -20z m197 -35 c0 -17 -2 -17 -10 -5 -5 8 -10 24 -10 35 0 17 2 17 10
5 5 -8 10 -24 10 -35z m-1523 3 c-3 -7 -5 -2 -5 12 0 14 2 19 5 13 2 -7 2 -19
0 -25z m268 -6 c5 -14 4 -14 -6 -5 -9 9 -16 9 -25 2 -9 -8 -11 -5 -7 10 6 22
28 18 38 -7z m850 -1 c-6 -5 -25 10 -25 20 0 5 6 4 14 -3 8 -7 12 -15 11 -17z
m235 9 c0 -5 -7 -10 -15 -10 -8 0 -12 -6 -9 -13 3 -8 -2 -14 -10 -14 -25 0 -1
36 32 46 1 1 2 -3 2 -9z m-1254 -33 c1 -15 -4 -27 -10 -27 -6 0 -4 -5 4 -11
11 -8 12 -12 2 -16 -6 -2 -9 -10 -5 -16 4 -7 9 -29 10 -49 1 -28 -2 -35 -13
-31 -17 6 -19 63 -1 64 10 0 10 2 0 6 -8 2 -13 22 -13 44 0 24 5 39 13 40 10
0 10 2 0 6 -7 2 -13 9 -13 15 0 23 25 -1 26 -25z m854 24 c0 -6 -4 -13 -10
-16 -5 -3 -10 1 -10 9 0 9 5 16 10 16 6 0 10 -4 10 -9z m260 -11 c0 -5 -5 -10
-11 -10 -5 0 -7 5 -4 10 3 6 8 10 11 10 2 0 4 -4 4 -10z m-1290 -57 c0 -18 -4
-33 -10 -33 -5 0 -7 7 -3 16 3 9 0 20 -8 26 -10 7 -11 11 -2 14 7 3 9 13 6 22
-4 15 -3 15 6 2 6 -8 11 -30 11 -47z m76 12 c0 -25 -3 -45 -7 -45 -4 0 -7 20
-7 45 0 25 3 45 7 45 5 0 8 -20 7 -45z m-36 31 c0 -3 -4 -8 -10 -11 -5 -3 -10
-1 -10 4 0 6 5 11 10 11 6 0 10 -2 10 -4z m290 0 c0 -2 -7 -9 -15 -16 -12 -10
-15 -10 -15 4 0 9 7 16 15 16 8 0 15 -2 15 -4z m294 -5 c4 -5 -5 -8 -19 -6
-35 3 -44 15 -12 15 14 0 28 -4 31 -9z m260 -3 c-3 -4 -9 -8 -15 -8 -5 0 -9 4
-9 8 0 5 7 9 15 9 8 0 12 -4 9 -9z m149 -17 c-3 -12 3 -24 18 -35 13 -9 19
-16 15 -16 -5 0 -18 7 -28 17 -19 17 -25 53 -9 53 5 0 7 -8 4 -19z m-493 -2
c0 -15 -18 -19 -23 -6 -3 8 1 14 9 14 8 0 14 -4 14 -8z m40 -3 c0 -8 -4 -18
-10 -21 -5 -3 -10 3 -10 14 0 12 5 21 10 21 6 0 10 -6 10 -14z m813 -9 c-5 -9
-3 -9 8 0 13 11 15 8 11 -17 -5 -36 -17 -39 -26 -7 -9 33 -7 49 4 42 6 -4 7
-12 3 -18z m180 3 c3 -11 1 -18 -3 -15 -5 3 -11 1 -15 -5 -3 -5 -11 -10 -16
-10 -5 0 -2 11 8 25 22 30 20 29 26 5z m-1652 -80 c-3 -19 -6 -27 -9 -17 -2 9
-8 15 -13 12 -5 -4 -5 5 1 20 6 15 11 38 11 53 1 27 1 27 8 -3 3 -16 4 -46 2
-65z m106 53 c-3 -10 -5 -4 -5 12 0 17 2 24 5 18 2 -7 2 -21 0 -30z m1183 11
c0 -8 -4 -14 -10 -14 -5 0 -10 9 -10 21 0 11 5 17 10 14 6 -3 10 -13 10 -21z
m-885 6 c3 -5 -1 -10 -10 -10 -9 0 -13 5 -10 10 3 6 8 10 10 10 2 0 7 -4 10
-10z m285 6 c0 -3 -4 -8 -10 -11 -5 -3 -10 -1 -10 4 0 6 5 11 10 11 6 0 10 -2
10 -4z m-503 -53 c-3 -10 -5 -2 -5 17 0 19 2 27 5 18 2 -10 2 -26 0 -35z m323
34 c0 -8 -7 -14 -15 -14 -16 0 -19 9 -8 20 11 11 23 8 23 -6z m120 -8 c0 -18
-3 -19 -15 -9 -8 6 -19 9 -25 5 -5 -3 -10 -2 -10 4 0 8 16 16 43 20 4 0 7 -9
7 -20z m725 -63 c1 -37 -1 -68 -4 -71 -4 -2 -7 11 -8 28 -1 18 -4 54 -7 81 -4
36 -3 47 5 39 6 -6 12 -41 14 -77z m-675 55 c2 -1 -1 -6 -8 -13 -7 -7 -12 -21
-12 -32 0 -27 -6 -17 -13 21 -5 26 -3 31 11 28 9 -2 19 -4 22 -4z m-280 -21
c0 -11 -4 -20 -9 -20 -6 0 -9 9 -8 20 1 11 5 20 9 20 4 0 8 -9 8 -20z m917
-12 c-3 -7 -5 -2 -5 12 0 14 2 19 5 13 2 -7 2 -19 0 -25z m65 2 c3 -16 1 -30
-3 -30 -4 0 -9 14 -11 30 -3 17 -1 30 3 30 4 0 9 -13 11 -30z m406 2 c-1 -15
1 -33 5 -39 4 -6 3 -14 -2 -17 -5 -3 -11 8 -15 25 -9 44 -8 59 4 59 6 0 9 -13
8 -28z m-1710 -11 c-1 -16 -5 -28 -9 -25 -4 2 -10 -2 -12 -8 -3 -7 -6 1 -6 17
-1 23 2 26 9 15 8 -12 10 -11 10 8 0 12 2 22 5 22 3 0 4 -13 3 -29z m29 -3
c-3 -7 -5 -2 -5 12 0 14 2 19 5 13 2 -7 2 -19 0 -25z m40 -15 c-3 -10 -5 -2
-5 17 0 19 2 27 5 18 2 -10 2 -26 0 -35z m353 -9 c-9 -10 -9 -14 -1 -14 6 0
11 -9 11 -20 0 -11 -6 -20 -12 -20 -9 0 -8 -4 2 -10 13 -8 12 -10 -2 -10 -21
0 -23 11 -6 28 9 9 9 12 0 12 -16 0 -15 32 1 67 12 26 12 27 15 5 2 -13 -2
-30 -8 -38z m134 30 c4 -10 1 -14 -6 -12 -15 5 -23 28 -10 28 5 0 13 -7 16
-16z m283 -6 c-3 -8 -6 -5 -6 6 -1 11 2 17 5 13 3 -3 4 -12 1 -19z m136 7 c-3
-9 -8 -14 -10 -11 -3 3 -2 9 2 15 9 16 15 13 8 -4z m-1013 1 c0 -2 -7 -6 -15
-10 -8 -3 -15 -1 -15 4 0 6 7 10 15 10 8 0 15 -2 15 -4z m857 -28 c-3 -8 -6
-5 -6 6 -1 11 2 17 5 13 3 -3 4 -12 1 -19z m431 -41 c-3 -38 -15 -23 -16 20
-1 29 1 34 8 21 6 -9 9 -27 8 -41z m389 31 c-3 -8 -6 -5 -6 6 -1 11 2 17 5 13
3 -3 4 -12 1 -19z m-1077 2 c0 -5 -7 -10 -15 -10 -8 0 -15 5 -15 10 0 6 7 10
15 10 8 0 15 -4 15 -10z m445 -24 c14 -4 24 -10 24 -14 -1 -4 0 -9 1 -12 6
-16 5 -50 -1 -50 -5 0 -6 -6 -3 -14 4 -10 -1 -14 -15 -13 -24 1 -24 2 -11 28
8 14 7 19 -1 19 -6 0 -9 7 -5 15 3 10 -1 15 -12 16 -14 0 -14 2 2 8 18 7 18 8
3 14 -9 3 -16 14 -16 24 1 16 2 16 6 1 2 -9 15 -19 28 -22z m15 24 c0 -5 -4
-10 -10 -10 -5 0 -10 5 -10 10 0 6 5 10 10 10 6 0 10 -4 10 -10z m-1083 -82
c-2 -18 -4 -6 -4 27 0 33 2 48 4 33 2 -15 2 -42 0 -60z m640 60 c-3 -8 -6 -5
-6 6 -1 11 2 17 5 13 3 -3 4 -12 1 -19z m-666 -48 l-9 -45 -1 46 c-1 25 2 49
6 53 12 12 13 -6 4 -54z m156 45 c0 -8 -4 -15 -9 -15 -10 0 -11 14 -1 23 9 10
10 9 10 -8z m249 -36 c-1 -32 3 -57 12 -65 11 -11 11 -14 0 -15 -10 0 -10 -2
1 -6 10 -4 10 -7 2 -13 -8 -4 -13 -45 -14 -113 -1 -62 -6 -107 -12 -107 -10 0
-11 113 -2 275 4 94 5 95 11 95 2 0 3 -23 2 -51z m-336 26 c0 -8 -4 -15 -10
-15 -5 0 -10 7 -10 15 0 8 5 15 10 15 6 0 10 -7 10 -15z m28 -15 c-1 -20 -5
-27 -11 -21 -5 5 -6 18 -2 30 9 30 14 26 13 -9z m164 -38 c-7 -2 -12 -10 -12
-18 0 -8 -4 -14 -8 -14 -5 0 -9 7 -9 15 0 8 3 15 7 15 4 0 6 17 4 38 l-4 37
17 -34 c13 -26 14 -36 5 -39z m668 53 c0 -8 -7 -15 -15 -15 -8 0 -15 7 -15 15
0 8 7 15 15 15 8 0 15 -7 15 -15z m332 -10 c3 -14 1 -25 -3 -25 -5 0 -9 11 -9
25 0 14 2 25 4 25 2 0 6 -11 8 -25z m-895 -47 c-2 -13 -4 -3 -4 22 0 25 2 35
4 23 2 -13 2 -33 0 -45z m283 -60 c0 -67 -3 -118 -7 -114 -8 8 -13 215 -6 229
11 19 13 -2 13 -115z m54 100 c-3 -5 -10 -6 -15 -3 -5 4 -9 1 -9 -4 0 -6 7
-11 15 -11 15 0 16 -2 13 -105 -1 -33 -1 -79 -2 -102 0 -81 -16 -43 -18 45
l-2 87 -6 -75 -6 -75 -4 55 c-3 58 -3 101 0 135 2 15 4 12 10 -10 7 -28 8 -29
9 -4 0 14 -4 30 -11 37 -22 22 -18 42 7 40 13 -1 21 -6 19 -10z m1113 -2 c-3
-8 -1 -17 6 -19 7 -2 8 -8 4 -13 -4 -5 -12 -2 -17 6 -13 20 -12 40 1 40 6 0 9
-6 6 -14z m-1216 -13 c13 -16 12 -17 -3 -4 -10 7 -18 15 -18 17 0 8 8 3 21
-13z m-531 3 c0 -3 -4 -8 -10 -11 -5 -3 -10 -1 -10 4 0 6 5 11 10 11 6 0 10
-2 10 -4z m865 -6 c3 -5 1 -10 -4 -10 -6 0 -11 5 -11 10 0 6 2 10 4 10 3 0 8
-4 11 -10z m-818 -42 c-3 -7 -5 -2 -5 12 0 14 2 19 5 13 2 -7 2 -19 0 -25z
m390 25 c-4 -3 -2 -12 4 -20 9 -10 8 -13 -2 -13 -10 0 -10 -3 -2 -11 8 -8 10
-46 6 -123 -9 -169 -23 -163 -22 9 1 144 3 165 16 165 4 0 3 -3 0 -7z m-450
-50 c-3 -10 -5 -2 -5 17 0 19 2 27 5 18 2 -10 2 -26 0 -35z m41 -13 c1 -27 -3
-52 -9 -55 -5 -4 -9 19 -9 55 0 34 4 59 9 56 5 -3 9 -28 9 -56z m61 38 c0 -7
-4 -22 -9 -33 -7 -16 -8 -14 -7 12 1 18 5 33 10 33 4 0 7 -6 6 -12z m774 -3
c-3 -9 -8 -14 -10 -11 -3 3 -2 9 2 15 9 16 15 13 8 -4z m355 -5 c14 0 14 -2 3
-9 -10 -7 -13 -23 -8 -63 3 -29 2 -44 -2 -33 -5 11 -10 45 -13 75 -3 30 -3 49
-1 43 3 -7 12 -13 21 -13z m399 6 c-3 -8 -3 -17 0 -20 9 -9 10 -76 2 -76 -8 0
-18 90 -12 103 7 13 15 7 10 -7z m145 -1 c0 -5 -5 -11 -11 -13 -6 -2 -11 4
-11 13 0 9 5 15 11 13 6 -2 11 -8 11 -13z m-1564 -80 c0 -14 -4 -25 -8 -25 -5
0 -14 -2 -22 -5 -10 -4 -12 5 -10 40 4 43 5 45 22 30 10 -9 18 -27 18 -40z
m851 -12 c-1 -71 -3 -70 -17 15 -7 42 -7 52 4 52 11 0 14 -17 13 -67z m18 35
c-3 -7 -5 -2 -5 12 0 14 2 19 5 13 2 -7 2 -19 0 -25z m-1146 -51 c-13 -13 -15
31 -3 60 5 14 8 10 10 -16 2 -18 -1 -38 -7 -44z m-24 21 c-3 -7 -5 -2 -5 12 0
14 2 19 5 13 2 -7 2 -19 0 -25z m926 -18 c3 -11 1 -20 -4 -20 -5 0 -9 9 -9 20
0 11 2 20 4 20 2 0 6 -9 9 -20z m94 -12 c-3 -8 -6 -5 -6 6 -1 11 2 17 5 13 3
-3 4 -12 1 -19z m-1030 -20 c-3 -7 -5 -2 -5 12 0 14 2 19 5 13 2 -7 2 -19 0
-25z m60 -15 c-3 -10 -5 -2 -5 17 0 19 2 27 5 18 2 -10 2 -26 0 -35z m76 15
c-8 -46 -13 -48 -13 -5 0 21 4 37 10 37 5 0 7 -14 3 -32z m1064 -20 c-2 -13
-4 -5 -4 17 -1 22 1 32 4 23 2 -10 2 -28 0 -40z m243 -5 c0 -39 -17 -25 -18
15 -1 27 1 33 8 22 5 -8 10 -25 10 -37z m-933 5 c-3 -8 -6 -5 -6 6 -1 11 2 17
5 13 3 -3 4 -12 1 -19z m-100 -61 c-3 -6 -6 -3 -8 8 -1 11 -5 0 -9 -25 l-7
-45 -1 60 c-2 57 -1 58 14 37 8 -12 13 -28 11 -35z m448 6 c-3 -25 -7 -49 -10
-51 -7 -7 -6 63 1 82 11 28 14 17 9 -31z m583 -14 c-3 -8 -7 -3 -11 10 -4 17
-3 21 5 13 5 -5 8 -16 6 -23z m-1289 -23 c9 -11 6 -12 -14 -8 -14 2 -25 8 -25
13 0 14 26 11 39 -5z m1164 -86 c-5 -5 -53 47 -53 57 0 4 13 -6 28 -22 15 -17
27 -32 25 -35z m-383 -60 c0 -5 -10 -10 -22 -10 -19 0 -20 2 -8 10 19 13 30
13 30 0z m40 -16 c0 -8 -5 -12 -10 -9 -6 4 -8 11 -5 16 9 14 15 11 15 -7z m95
7 c23 -1 27 -4 15 -11 -12 -8 -9 -10 13 -10 37 0 56 -42 23 -52 -32 -9 -58 -9
-51 1 3 5 -5 12 -17 14 -20 4 -20 4 4 6 43 2 44 21 1 21 -27 0 -42 6 -51 20
-11 18 -10 19 10 16 13 -3 37 -5 53 -5z m411 -3 c4 -6 3 -8 -4 -4 -6 3 -15 -2
-21 -11 -12 -20 -14 -13 -5 11 7 19 20 21 30 4z m-846 -14 c0 -2 -9 -4 -20 -4
-11 0 -20 4 -20 9 0 5 9 7 20 4 11 -3 20 -7 20 -9z m600 -32 c0 -13 -3 -12
-15 4 -19 25 -19 40 0 24 8 -7 15 -20 15 -28z m-720 14 c0 -20 -17 -29 -26
-15 -5 8 -3 9 6 4 10 -6 12 -4 7 8 -3 10 -2 17 3 17 6 0 10 -6 10 -14z m-330
-9 c8 -3 22 -8 30 -10 10 -4 9 -6 -5 -6 -17 -1 -17 -3 -5 -11 33 -21 -8 -8
-45 14 -33 21 -36 24 -15 22 14 -2 32 -6 40 -9z m1384 -28 c11 -10 -39 -23
-53 -14 -6 3 -11 13 -11 21 0 11 7 13 28 8 15 -4 31 -10 36 -15z m-1215 -25
c9 -9 -53 7 -63 17 -5 5 5 4 24 -1 18 -5 35 -12 39 -16z m-214 6 c8 -13 -5
-13 -25 0 -13 8 -13 10 2 10 9 0 20 -4 23 -10z m149 -5 c11 -8 18 -15 15 -16
-2 0 -14 -2 -26 -5 -16 -3 -21 0 -17 10 4 9 -3 16 -18 19 -22 4 -22 4 2 5 14
1 34 -5 44 -13z m643 -11 c-3 -3 -12 -4 -19 -1 -8 3 -5 6 6 6 11 1 17 -2 13
-5z m781 -186 c9 -9 18 -9 37 0 32 15 47 15 23 1 -30 -17 -20 -30 12 -14 39
20 62 19 58 -2 -2 -13 -11 -17 -31 -15 -16 2 -33 -1 -40 -6 -21 -16 -91 -14
-112 3 -11 9 -14 14 -7 10 7 -4 12 0 12 9 0 12 12 23 31 25 3 1 10 -4 17 -11z
m172 -2 c0 -2 -7 -9 -15 -16 -12 -10 -15 -10 -15 4 0 9 7 16 15 16 8 0 15 -2
15 -4z m-302 -61 c-3 -3 -9 2 -12 12 -6 14 -5 15 5 6 7 -7 10 -15 7 -18z m246
-37 c-5 -8 -2 -9 9 -5 10 4 16 2 14 -6 -1 -7 5 -11 14 -11 12 1 15 -4 11 -19
-4 -17 -1 -19 16 -15 12 4 20 2 16 -3 -3 -5 -14 -9 -25 -9 -10 0 -19 -5 -19
-11 0 -6 7 -9 15 -6 8 4 17 1 21 -6 4 -7 4 -9 -1 -5 -4 4 -14 3 -22 -3 -7 -6
-13 -7 -13 -2 0 20 -31 9 -36 -14 -4 -12 -10 -20 -16 -17 -5 3 -5 11 2 19 6 7
9 25 6 39 -3 14 0 28 5 31 5 4 9 1 9 -4 0 -6 8 -11 18 -11 14 1 13 4 -7 21
-22 18 -25 18 -42 3 -10 -9 -22 -13 -27 -10 -5 3 -15 0 -21 -8 -9 -11 -9 -15
1 -19 7 -3 4 -6 -7 -6 -12 -1 -27 -7 -34 -13 -10 -11 -11 -9 -5 6 5 13 4 17
-4 12 -7 -4 -12 -3 -12 2 0 6 7 13 16 16 9 3 12 11 8 18 -5 8 -2 9 9 5 11 -4
17 -1 17 8 0 20 21 30 31 14 6 -9 9 -10 9 -2 0 6 10 14 23 16 12 2 23 5 25 6
2 0 0 -4 -4 -11z m-340 -43 c11 -8 18 -17 15 -19 -2 -2 -15 4 -28 15 -27 22
-15 26 13 4z m326 -54 c0 -12 -20 -25 -27 -18 -7 7 6 27 18 27 5 0 9 -4 9 -9z
m-23 -37 c-3 -3 -12 -4 -19 -1 -8 3 -5 6 6 6 11 1 17 -2 13 -5z m33 -40 c0
-24 27 -36 52 -23 22 12 23 11 5 -8 -12 -14 -27 -19 -49 -17 -18 2 -35 -1 -39
-8 -6 -10 -11 -10 -20 -1 -6 6 -17 9 -24 7 -7 -3 -16 0 -20 6 -3 6 -3 9 2 8
10 -4 53 38 47 45 -3 3 6 4 20 3 14 0 26 -6 26 -12z m77 -47 c0 -8 -6 -14 -14
-14 -9 0 -10 4 -2 14 6 7 12 13 14 13 1 0 2 -6 2 -13z"/>
<path d="M300 1329 c0 -5 5 -7 10 -4 6 3 10 8 10 11 0 2 -4 4 -10 4 -5 0 -10
-5 -10 -11z"/>
<path d="M1709 686 c9 -11 9 -15 -1 -19 -7 -2 0 -4 15 -4 28 0 28 0 8 18 -24
22 -39 25 -22 5z"/>
<path d="M1810 579 c0 -5 5 -7 10 -4 6 3 10 8 10 11 0 2 -4 4 -10 4 -5 0 -10
-5 -10 -11z"/>
<path d="M1820 396 c0 -2 7 -6 15 -10 8 -3 15 -1 15 4 0 6 -7 10 -15 10 -8 0
-15 -2 -15 -4z"/>
<path d="M1231 2574 c0 -11 3 -14 6 -6 3 7 2 16 -1 19 -3 4 -6 -2 -5 -13z"/>
<path d="M1310 2580 c-9 -6 -10 -10 -3 -10 6 0 15 5 18 10 8 12 4 12 -15 0z"/>
<path d="M1847 2572 c3 -12 -4 -23 -21 -32 -23 -12 -25 -15 -11 -30 8 -9 15
-27 15 -39 0 -17 4 -20 18 -14 9 5 34 8 55 8 33 -1 37 2 37 23 0 19 -3 22 -13
13 -8 -6 -17 -8 -20 -4 -4 3 -7 -1 -7 -10 0 -12 -8 -16 -24 -15 -22 2 -23 3
-9 25 9 13 18 22 20 19 8 -8 53 41 53 58 0 13 -10 16 -49 16 -42 0 -48 -2 -44
-18z m10 -62 c3 -10 2 -11 -4 -4 -4 6 -15 14 -23 17 -11 5 -9 6 4 4 11 -1 21
-9 23 -17z"/>
<path d="M622 2530 c0 -19 2 -28 5 -20 3 8 11 21 17 29 8 11 8 13 -1 8 -6 -4
-14 -1 -16 5 -3 7 -5 -3 -5 -22z"/>
<path d="M1000 2540 c14 -27 29 -34 23 -11 -3 11 -11 22 -19 25 -11 4 -12 2
-4 -14z"/>
<path d="M622 2470 c0 -14 2 -19 5 -12 2 6 2 18 0 25 -3 6 -5 1 -5 -13z"/>
<path d="M1615 2450 c-3 -5 -1 -10 4 -10 6 0 11 5 11 10 0 6 -2 10 -4 10 -3 0
-8 -4 -11 -10z"/>
<path d="M1905 2440 c-4 -6 -3 -15 1 -21 4 -6 12 -35 19 -63 l13 -51 1 38 c1
21 -4 47 -9 58 -7 13 -7 19 0 19 5 0 10 4 10 9 0 13 -28 22 -35 11z"/>
<path d="M1171 2414 c0 -11 3 -14 6 -6 3 7 2 16 -1 19 -3 4 -6 -2 -5 -13z"/>
<path d="M1880 2430 c-1 -3 -3 -18 -4 -33 -1 -16 -6 -31 -12 -35 -5 -4 -11
-18 -11 -32 l-2 -25 15 28 c8 15 21 27 29 27 8 0 15 5 15 10 0 6 -5 10 -11 10
-5 0 -8 3 -6 8 3 4 1 16 -4 27 -4 11 -8 18 -9 15z"/>
<path d="M1850 2385 c-11 -13 -10 -14 4 -9 9 3 16 10 16 15 0 13 -6 11 -20 -6z"/>
<path d="M970 2360 c0 -5 5 -10 11 -10 5 0 7 5 4 10 -3 6 -8 10 -11 10 -2 0
-4 -4 -4 -10z"/>
<path d="M640 2330 c0 -11 2 -20 4 -20 2 0 6 9 9 20 3 11 1 20 -4 20 -5 0 -9
-9 -9 -20z"/>
<path d="M1056 2331 c-4 -7 -5 -15 -2 -18 9 -9 19 4 14 18 -4 11 -6 11 -12 0z"/>
<path d="M1267 2333 c-4 -3 -7 -15 -7 -25 0 -22 15 -16 30 13 8 14 7 19 -3 19
-8 0 -17 -3 -20 -7z"/>
<path d="M1890 2323 c-18 -22 -20 -55 -2 -59 7 -1 8 0 2 3 -14 7 -12 19 6 37
8 9 14 21 12 26 -2 6 -10 2 -18 -7z"/>
<path d="M986 2295 c-9 -26 -7 -32 5 -12 6 10 9 21 6 23 -2 3 -7 -2 -11 -11z"/>
<path d="M1070 2280 c0 -11 2 -20 4 -20 2 0 6 9 9 20 3 11 1 20 -4 20 -5 0 -9
-9 -9 -20z"/>
<path d="M664 2259 c-4 -7 -3 -9 4 -5 5 3 13 0 15 -6 4 -9 6 -10 6 -1 1 17
-16 25 -25 12z"/>
<path d="M901 2244 c0 -11 3 -14 6 -6 3 7 2 16 -1 19 -3 4 -6 -2 -5 -13z"/>
<path d="M1909 2237 c6 -8 8 -17 4 -20 -3 -4 1 -7 10 -7 15 0 15 3 5 20 -7 11
-17 20 -22 20 -4 0 -3 -6 3 -13z"/>
<path d="M911 2184 c0 -11 3 -14 6 -6 3 7 2 16 -1 19 -3 4 -6 -2 -5 -13z"/>
<path d="M1090 2181 c0 -6 4 -13 10 -16 6 -3 7 1 4 9 -7 18 -14 21 -14 7z"/>
<path d="M1100 2141 c0 -5 5 -13 10 -16 6 -3 10 -2 10 4 0 5 -4 13 -10 16 -5
3 -10 2 -10 -4z"/>
<path d="M682 2084 c-7 -8 -10 -19 -6 -26 5 -7 10 -3 16 12 10 28 7 33 -10 14z"/>
<path d="M1230 2063 c0 -6 9 -11 20 -10 11 1 20 6 20 12 0 6 -9 11 -20 11 -11
0 -20 -6 -20 -13z"/>
<path d="M861 2044 c0 -11 3 -14 6 -6 3 7 2 16 -1 19 -3 4 -6 -2 -5 -13z"/>
<path d="M923 1975 c-3 -9 -3 -18 -1 -21 3 -3 8 4 11 16 6 23 -1 27 -10 5z"/>
<path d="M897 1689 c7 -7 15 -10 18 -7 3 3 -2 9 -12 12 -14 6 -15 5 -6 -5z"/>
<path d="M849 1574 c0 -5 -2 -16 -3 -24 -9 -44 -16 -120 -12 -120 7 0 28 141
22 147 -3 4 -6 2 -7 -3z"/>
<path d="M811 1414 c0 -21 4 -48 9 -59 5 -12 6 1 3 35 -7 66 -13 79 -12 24z"/>
<path d="M820 1321 c0 -5 5 -13 10 -16 6 -3 10 -2 10 4 0 5 -4 13 -10 16 -5 3
-10 2 -10 -4z"/>
<path d="M720 860 c0 -5 5 -10 10 -10 6 0 10 5 10 10 0 6 -4 10 -10 10 -5 0
-10 -4 -10 -10z"/>
<path d="M1305 859 c-10 -15 3 -25 16 -12 7 7 7 13 1 17 -6 3 -14 1 -17 -5z"/>
<path d="M1337 845 l-28 -25 33 0 c24 0 29 3 19 9 -12 8 -12 12 -2 25 19 23
10 19 -22 -9z"/>
<path d="M66 834 c-3 -8 -11 -12 -17 -9 -5 4 -19 -1 -30 -11 -16 -15 -19 -31
-19 -111 0 -100 4 -107 47 -73 31 24 58 27 49 4 -3 -9 -6 -18 -6 -20 0 -3 -5
-2 -12 2 -7 4 -8 3 -4 -5 4 -6 3 -18 -3 -25 -9 -11 -5 -15 18 -18 17 -2 28 -1
25 4 -8 12 10 10 24 -4 9 -9 12 -9 12 0 0 7 -4 12 -9 12 -12 0 -41 29 -41 41
0 5 5 9 10 9 6 0 10 -7 10 -15 0 -16 34 -38 44 -28 12 12 6 24 -16 33 -18 7
-19 9 -5 9 9 1 17 9 17 19 0 15 -2 15 -11 2 -8 -11 -12 -12 -16 -2 -2 6 -9 10
-14 6 -5 -3 -9 -3 -9 1 0 3 12 10 26 15 23 9 25 12 13 28 -13 15 -12 16 3 3
10 -7 25 -11 33 -7 8 3 15 1 15 -5 0 -6 6 -9 14 -6 8 3 22 -3 31 -13 9 -10 34
-22 56 -25 21 -4 37 -11 34 -15 -3 -5 4 -15 15 -23 11 -7 17 -17 14 -20 -4 -3
8 -1 26 6 24 9 28 13 14 16 -11 2 -31 12 -46 23 -15 10 -44 22 -63 25 -19 3
-35 9 -35 13 0 4 -22 23 -50 41 -27 19 -48 39 -46 45 6 16 -22 13 -28 -3 -4
-8 4 -17 19 -23 14 -5 25 -15 25 -22 0 -9 -3 -9 -12 0 -7 7 -22 12 -35 12 -23
0 -48 33 -38 50 11 17 -7 11 -21 -7 -13 -17 -13 -17 -14 0 0 9 -6 16 -12 15
-7 -2 -13 4 -13 12 0 10 8 14 23 13 17 -2 22 2 22 22 0 29 -5 32 -14 9z m45
-141 c13 -15 12 -15 -6 -6 -11 6 -27 13 -35 16 -10 4 -8 6 6 6 12 1 28 -6 35
-16z m254 -81 c-3 -3 -11 0 -18 7 -9 10 -8 11 6 5 10 -3 15 -9 12 -12z"/>
<path d="M1598 843 c7 -3 16 -2 19 1 4 3 -2 6 -13 5 -11 0 -14 -3 -6 -6z"/>
<path d="M1266 828 c3 -4 0 -8 -7 -8 -7 0 -10 -2 -7 -5 7 -7 38 5 38 14 0 4
-7 8 -15 8 -8 0 -12 -4 -9 -9z"/>
<path d="M0 819 c0 -5 5 -7 10 -4 5 3 10 8 10 11 0 2 -4 4 -10 4 -5 0 -10 -5
-10 -11z"/>
<path d="M180 810 c17 -11 47 -14 36 -3 -3 4 -17 8 -29 10 -17 2 -19 1 -7 -7z"/>
<path d="M1843 813 c8 -12 -13 -22 -46 -24 -17 -1 -15 -3 8 -9 17 -5 44 -13
62 -18 28 -9 31 -8 26 6 -5 14 -3 15 8 5 19 -18 39 -16 39 5 0 14 -2 15 -10 2
-7 -11 -10 -11 -10 -2 0 9 -10 12 -30 8 -21 -3 -30 0 -30 9 0 8 -5 17 -12 21
-6 4 -8 3 -5 -3z"/>
<path d="M250 806 c0 -2 9 -6 20 -9 11 -3 18 -1 14 4 -5 9 -34 13 -34 5z"/>
<path d="M1208 793 c7 -3 16 -2 19 1 4 3 -2 6 -13 5 -11 0 -14 -3 -6 -6z"/>
<path d="M1413 783 c0 -9 4 -10 14 -2 7 6 13 12 13 14 0 1 -6 2 -13 2 -8 0
-14 -6 -14 -14z"/>
<path d="M210 786 c0 -2 7 -7 16 -10 8 -3 12 -2 9 4 -6 10 -25 14 -25 6z"/>
<path d="M511 774 c13 -16 29 -19 29 -5 0 5 -9 11 -21 14 -16 4 -18 3 -8 -9z"/>
<path d="M1611 778 c-1 -10 -14 -19 -33 -24 -33 -8 -40 -9 -108 -17 -19 -2
-37 -8 -40 -13 -8 -14 102 -16 136 -3 16 7 35 13 42 15 19 4 20 6 11 34 -4 15
-7 18 -8 8z m-84 -54 c-3 -3 -12 -4 -19 -1 -8 3 -5 6 6 6 11 1 17 -2 13 -5z"/>
<path d="M106 765 c-3 -8 -1 -15 4 -15 13 0 22 18 11 24 -5 3 -11 -1 -15 -9z"/>
<path d="M463 773 c4 -6 1 -14 -5 -16 -7 -3 -3 -6 9 -6 12 -1 25 5 29 12 4 6
4 9 -1 5 -4 -4 -15 -2 -23 5 -11 8 -14 8 -9 0z"/>
<path d="M818 773 c7 -3 16 -2 19 1 4 3 -2 6 -13 5 -11 0 -14 -3 -6 -6z"/>
<path d="M1530 770 c0 -5 5 -10 11 -10 5 0 7 5 4 10 -3 6 -8 10 -11 10 -2 0
-4 -4 -4 -10z"/>
<path d="M957 756 c-4 -10 -1 -13 9 -9 7 3 14 9 14 14 0 14 -17 10 -23 -5z"/>
<path d="M416 744 c-5 -13 -9 -14 -21 -4 -8 6 -18 9 -23 6 -5 -3 -25 -6 -45
-8 -37 -2 -48 -12 -24 -21 7 -3 5 -6 -5 -6 -10 -1 -18 4 -18 9 0 6 -6 10 -14
10 -9 0 -5 -10 12 -28 35 -38 94 -70 77 -42 -3 6 1 7 9 4 9 -3 16 -1 16 6 0 6
5 8 12 4 7 -5 8 -3 3 5 -4 7 -16 11 -26 8 -11 -3 -17 -1 -14 3 3 5 24 8 46 8
22 0 43 2 46 6 4 3 -3 6 -15 6 -24 0 -28 10 -10 28 6 6 9 14 6 17 -3 3 -8 -2
-12 -11z m-33 -31 c-7 -2 -19 -2 -25 0 -7 3 -2 5 12 5 14 0 19 -2 13 -5z m-43
-23 c0 -5 -5 -10 -11 -10 -5 0 -7 5 -4 10 3 6 8 10 11 10 2 0 4 -4 4 -10z"/>
<path d="M843 753 c9 -2 23 -2 30 0 6 3 -1 5 -18 5 -16 0 -22 -2 -12 -5z"/>
<path d="M987 746 c-3 -8 -3 -17 0 -20 9 -9 66 -7 82 3 8 5 -1 8 -25 7 -26 -1
-38 3 -36 12 3 17 -15 15 -21 -2z"/>
<path d="M210 741 c0 -5 7 -11 14 -14 10 -4 13 -1 9 9 -6 15 -23 19 -23 5z"/>
<path d="M691 746 c2 -2 18 -6 34 -10 22 -5 26 -4 15 4 -14 9 -59 15 -49 6z"/>
<path d="M490 730 c-23 -7 -23 -8 -3 -9 12 -1 25 4 28 9 3 6 5 10 3 9 -2 -1
-14 -5 -28 -9z"/>
<path d="M870 730 c-13 -8 -12 -10 3 -10 9 0 17 5 17 10 0 12 -1 12 -20 0z"/>
<path d="M900 725 c0 -9 5 -13 10 -10 6 3 10 -1 10 -9 0 -12 -5 -13 -30 -5
-22 8 -34 7 -50 -4 -19 -14 -18 -14 19 -12 22 1 38 -2 35 -7 -3 -5 -13 -8 -22
-7 -30 3 -43 -1 -38 -10 3 -5 -5 -16 -19 -25 -15 -10 -25 -12 -25 -6 0 6 -4 8
-10 5 -17 -10 -11 -22 13 -29 17 -5 19 -8 8 -15 -7 -5 -10 -14 -7 -20 4 -6 1
-11 -8 -11 -8 0 -18 -5 -22 -12 -4 -7 -3 -8 4 -4 21 13 122 16 122 3 0 -6 6
-2 14 9 14 18 14 17 10 -13 -3 -20 -1 -33 5 -33 6 0 11 -5 11 -12 0 -6 -3 -8
-7 -5 -3 4 -13 1 -21 -6 -11 -9 -16 -9 -19 -1 -2 7 -14 10 -26 8 -21 -4 -21
-4 -2 5 11 4 23 7 27 5 4 -3 10 1 14 7 4 8 3 9 -4 5 -7 -4 -12 -1 -12 8 0 18
-8 20 -30 6 -9 -6 -20 -5 -29 3 -12 10 -14 9 -8 -5 5 -15 2 -16 -19 -8 -36 14
-41 12 -18 -6 19 -15 18 -15 -3 -11 -15 3 -23 0 -23 -9 0 -11 6 -11 27 -3 17
6 30 6 36 0 10 -10 5 -14 -38 -25 -23 -6 25 0 70 9 17 3 23 2 15 -2 -31 -16
-60 -38 -60 -46 0 -4 5 -5 12 -1 7 4 8 3 4 -4 -9 -15 -36 -16 -36 -2 0 6 -7
10 -15 10 -8 0 -14 -4 -12 -9 1 -5 -7 -17 -18 -25 -11 -9 -14 -16 -7 -16 20 0
14 -20 -7 -20 -27 0 -38 20 -17 32 25 14 19 26 -11 21 -16 -3 -23 -1 -17 4 7
5 4 14 -8 26 -15 14 -19 15 -24 4 -3 -8 -16 -13 -30 -11 -13 1 -24 -2 -24 -7
0 -5 -6 -9 -14 -9 -8 0 -17 -7 -20 -16 -3 -8 -10 -13 -15 -9 -5 3 -13 0 -17
-6 -4 -7 -3 -9 4 -5 6 3 18 -1 26 -10 16 -16 20 -12 17 19 -2 12 5 17 24 17
14 0 24 -4 21 -9 -4 -5 0 -12 6 -14 10 -4 10 -6 0 -6 -7 -1 -10 -5 -7 -11 3
-5 -2 -10 -12 -10 -10 0 -29 -3 -42 -7 -19 -5 -22 -3 -16 8 7 12 6 12 -7 1
-17 -13 -80 -13 -72 0 3 5 8 6 12 4 4 -2 13 2 19 10 18 18 -2 27 -27 12 -11
-7 -20 -22 -21 -33 -1 -17 -2 -16 -9 5 -4 14 -8 22 -9 18 -1 -5 -9 0 -19 10
-11 9 -17 20 -15 24 2 4 -3 5 -11 2 -9 -3 -16 -1 -16 5 0 6 5 11 12 11 6 0 9
2 6 5 -3 3 -16 1 -29 -4 -13 -5 -18 -10 -11 -10 6 -1 12 -10 12 -20 0 -11 6
-22 13 -24 10 -4 9 -6 0 -6 -19 -1 -16 -28 4 -40 17 -10 17 -10 1 -11 -10 0
-18 5 -18 10 0 6 -9 10 -19 10 -27 0 -37 20 -14 26 10 3 19 15 20 27 2 19 0
20 -10 7 -14 -17 -39 -20 -49 -5 -4 6 -8 2 -8 -7 0 -18 -11 -22 -39 -18 -10 1
-9 -3 4 -16 12 -12 14 -19 6 -22 -19 -6 -43 7 -35 19 4 8 3 9 -5 5 -6 -4 -9
-12 -6 -17 4 -5 3 -9 -2 -10 -4 0 -20 -2 -36 -4 -18 -2 -25 0 -21 7 5 7 2 9
-8 6 -8 -4 -21 -2 -28 2 -10 6 -6 11 15 16 19 5 30 3 33 -4 5 -17 22 -15 22 4
0 8 4 13 9 10 5 -3 12 1 15 9 3 8 9 14 13 14 4 -1 16 1 26 5 21 10 23 30 2 22
-8 -3 -15 -2 -15 3 0 5 10 12 22 15 l23 7 -23 9 c-13 6 -20 14 -17 20 3 5 1
10 -5 10 -7 0 -9 -8 -5 -20 4 -11 2 -20 -4 -20 -6 0 -11 5 -11 12 0 6 -3 8 -8
4 -4 -4 -7 -13 -7 -19 0 -7 -11 -12 -25 -12 -15 0 -24 5 -22 13 4 21 -25 13
-31 -9 -3 -12 -10 -18 -17 -14 -6 4 -9 13 -6 21 3 8 1 14 -5 14 -6 0 -7 5 -4
10 3 6 -2 10 -12 10 -12 0 -14 3 -6 8 8 5 7 12 -4 27 -14 20 -15 19 -11 -4 2
-17 -2 -25 -14 -27 -10 -1 -18 2 -18 7 0 5 -5 9 -11 9 -8 0 -7 -5 2 -16 9 -11
9 -18 2 -22 -14 -9 -12 -70 2 -68 5 1 16 5 22 9 9 6 11 3 7 -7 -3 -8 3 -28 13
-43 13 -19 19 -41 17 -69 -2 -34 1 -43 17 -47 21 -6 27 8 7 16 -8 3 -6 6 5 6
9 1 17 8 17 17 0 13 -3 14 -14 5 -17 -14 -27 -2 -20 25 5 17 13 20 51 18 25
-2 49 -8 53 -15 5 -7 13 -8 21 -3 16 10 87 6 108 -6 14 -8 13 -9 -4 -10 -16 0
-17 -2 -5 -10 8 -5 11 -12 8 -16 -4 -4 -19 1 -34 11 -15 9 -23 12 -20 6 4 -6
0 -11 -8 -11 -9 0 -16 5 -16 11 0 6 -7 4 -15 -5 -10 -10 -26 -13 -43 -10 -24
5 -27 2 -27 -20 0 -14 4 -26 8 -26 5 0 5 -5 1 -12 -4 -7 -3 -8 5 -4 6 4 9 12
6 17 -4 5 3 9 13 9 11 0 25 7 32 15 7 9 15 13 18 10 3 -2 -7 -14 -22 -26 -14
-11 -24 -25 -21 -29 7 -12 -33 -33 -50 -26 -8 3 -17 1 -20 -4 -9 -15 -34 0
-28 17 3 8 9 11 12 6 3 -4 15 -9 26 -10 20 -1 20 -1 1 13 -11 8 -14 14 -8 14
7 0 12 7 12 15 0 22 -15 18 -35 -9 -12 -16 -24 -22 -39 -18 -19 5 -18 7 9 19
21 9 24 13 10 12 -35 -2 -46 1 -40 11 3 5 1 10 -4 10 -6 0 -11 -6 -11 -14 0
-8 -5 -16 -12 -18 -7 -3 -13 -39 -15 -104 l-4 -100 75 0 c42 -1 76 3 76 8 0 4
7 8 16 8 9 0 12 -5 8 -12 -6 -10 -4 -10 7 0 16 14 33 16 24 2 -3 -5 1 -10 9
-10 8 0 18 5 21 10 4 7 13 7 25 0 28 -15 302 -12 294 3 -5 8 -2 8 7 0 18 -17
109 -17 109 0 0 8 4 7 10 -3 9 -13 10 -13 10 0 0 10 3 11 8 3 11 -17 937 -18
972 0 34 16 126 16 123 0 -4 -16 21 -17 48 -3 13 7 19 7 19 0 0 -5 18 -10 40
-10 38 0 39 1 37 33 -2 32 -23 65 -34 53 -4 -3 -17 3 -29 15 -19 17 -26 19
-46 9 -21 -10 -21 -10 -5 3 23 19 6 31 -31 23 l-27 -6 24 14 c16 9 20 15 11
18 -9 3 -11 11 -7 23 7 17 8 17 20 1 7 -9 21 -18 32 -20 10 -1 21 -9 23 -17 3
-11 1 -11 -7 1 -6 8 -11 10 -11 4 0 -14 24 -35 36 -33 21 3 35 -2 29 -11 -3
-6 1 -7 9 -4 11 4 16 20 16 51 0 27 -4 42 -10 38 -5 -3 -10 -1 -10 6 0 6 -8 9
-20 6 -11 -3 -20 -1 -20 4 0 9 22 13 48 10 6 -1 12 3 12 9 0 12 -6 13 -47 1
-21 -6 -35 -5 -43 2 -8 9 -10 8 -5 -4 3 -9 18 -22 33 -30 15 -7 29 -14 31 -16
1 -1 -3 -8 -10 -16 -12 -12 -15 -11 -24 7 -6 12 -19 20 -28 20 -11 -1 -17 6
-17 20 0 12 -7 31 -15 42 -11 13 -14 14 -13 4 2 -8 -4 -15 -12 -15 -8 0 -21
-4 -29 -9 -10 -6 -12 -5 -7 3 5 8 0 14 -13 18 -19 5 -19 7 -6 34 19 35 19 49
1 49 -8 0 -16 3 -19 8 -2 4 -3 2 -1 -4 5 -24 -12 -34 -32 -18 -16 13 -16 15
-1 10 11 -3 17 0 17 9 0 8 -8 15 -17 15 -14 1 -13 4 6 14 23 13 23 14 5 23
-29 16 -93 23 -100 12 -4 -6 -10 -6 -19 1 -10 8 -14 8 -17 -1 -3 -8 -9 -9 -19
-4 -19 12 -40 15 -34 5 3 -4 -5 -10 -17 -13 -18 -5 -19 -9 -9 -21 13 -16 15
-15 -50 -17 -12 0 -19 -3 -16 -6 7 -6 103 -7 127 -2 8 2 14 -2 12 -8 -1 -7 4
-13 10 -13 20 -1 -21 -22 -47 -25 -18 -1 -22 2 -20 17 3 16 1 17 -18 7 -32
-17 -35 -23 -10 -15 17 5 22 4 18 -6 -3 -7 6 -18 20 -25 14 -6 23 -7 20 -3 -3
5 -1 11 5 15 5 3 10 2 10 -3 0 -6 8 -13 18 -17 14 -5 15 -4 5 6 -19 20 -16 29
10 25 12 -2 29 1 37 7 8 6 5 0 -8 -14 -12 -14 -19 -29 -15 -32 3 -4 -1 -7 -10
-7 -10 0 -17 -4 -17 -10 0 -5 6 -8 13 -6 6 1 9 1 4 -1 -4 -3 -4 -10 0 -16 3
-7 -6 -1 -22 13 -20 18 -29 21 -32 12 -4 -10 -8 -10 -19 -1 -8 6 -11 16 -7 23
4 6 -1 5 -10 -3 -13 -10 -17 -11 -17 -1 0 18 -53 67 -67 63 -7 -3 -9 4 -6 16
3 12 1 21 -3 21 -5 0 -10 -11 -10 -25 -2 -19 3 -25 18 -25 10 0 16 -5 13 -10
-4 -6 -11 -8 -16 -4 -5 3 -9 2 -8 -3 6 -35 -18 -44 -45 -18 -8 8 -22 15 -30
15 -9 0 -16 -7 -16 -15 0 -8 -7 -15 -15 -15 -8 0 -15 4 -15 10 0 5 -6 8 -12 6
-7 -1 -10 -1 -5 1 4 3 7 11 7 19 0 19 -62 17 -105 -3 l-30 -14 30 25 c23 20
32 23 44 13 12 -10 14 -9 8 6 -3 9 -2 17 4 17 6 0 8 4 5 8 -3 5 1 9 9 9 11 0
12 -4 4 -13 -8 -10 -4 -15 18 -19 15 -4 38 -10 50 -15 14 -6 25 -6 28 1 4 5 3
9 -2 8 -4 -1 -24 2 -43 7 -34 7 -34 8 -10 15 17 5 19 7 7 8 -10 1 -15 6 -12
12 5 7 14 4 26 -7 11 -10 19 -12 19 -6 0 19 -4 27 -12 25 -4 -2 -5 4 -2 12 4
8 11 12 18 8 6 -3 7 -2 3 2 -10 11 -21 13 -143 20 -56 3 -115 10 -132 14 -17
5 -33 7 -36 3 -3 -3 -6 0 -6 6 0 6 13 13 30 17 42 9 49 27 8 20 -21 -3 -28 -2
-19 4 9 6 10 11 2 15 -19 12 -3 24 25 18 19 -3 25 -1 20 7 -4 6 -20 11 -37 11
-30 0 -36 9 -18 27 8 8 8 13 0 18 -7 3 -10 1 -9 -6 2 -7 -1 -13 -7 -14 -5 0
-17 -4 -25 -9 -12 -7 -13 -6 -2 5 16 18 15 29 -4 29 -9 0 -27 9 -41 20 -14 11
-29 17 -34 14 -5 -3 -9 0 -9 5 0 16 31 13 50 -4 9 -8 27 -16 41 -17 20 -3 24
1 22 20 -2 12 2 22 8 22 5 0 7 -5 3 -11 -4 -7 -1 -10 7 -7 8 3 13 12 11 22 -3
17 14 23 20 7 2 -5 16 -13 32 -17 21 -5 28 -4 24 6 -2 7 -15 15 -28 17 -33 5
-50 23 -24 24 10 1 23 1 27 0 5 -1 5 4 2 10 -5 7 -31 9 -79 5 -49 -4 -64 -3
-48 4 27 11 28 15 5 16 -10 1 -26 4 -35 9 -13 5 -18 3 -18 -10z m-30 -102 c0
-8 -12 -13 -30 -13 -26 0 -29 2 -18 14 16 17 48 17 48 -1z m30 -23 c-12 -8
-10 -10 9 -10 24 0 24 -1 6 -14 -17 -12 -21 -12 -31 2 -15 20 -9 32 14 32 15
0 15 -2 2 -10z m-49 -17 c8 -10 9 -14 2 -10 -6 4 -14 3 -18 -3 -3 -5 -10 -10
-16 -10 -5 0 -4 9 3 20 15 24 13 24 29 3z m93 -44 c-3 -6 2 -17 12 -25 18 -14
18 -14 -3 -5 -12 6 -21 19 -20 30 0 11 5 17 9 15 5 -3 6 -10 2 -15z m46 1 c0
-5 -5 -10 -11 -10 -5 0 -7 5 -4 10 3 6 8 10 11 10 2 0 4 -4 4 -10z m-924 -82
c4 -7 4 -10 -1 -6 -4 4 -14 3 -22 -3 -8 -8 -13 -8 -13 -1 0 6 6 13 13 15 6 3
13 6 14 6 1 1 5 -5 9 -11z m902 -5 c-10 -2 -26 -2 -35 0 -10 3 -2 5 17 5 19 0
27 -2 18 -5z m-874 -51 c2 -4 -4 -8 -15 -8 -10 0 -19 4 -19 8 0 4 6 8 14 8 8
0 17 -4 20 -8z m114 -6 c-7 -7 -19 -11 -27 -8 -11 4 -10 7 5 13 29 12 36 10
22 -5z m638 -18 c5 -18 9 -37 10 -43 0 -5 4 -18 9 -28 7 -17 8 -17 22 0 13 17
14 16 8 -4 -4 -14 -2 -23 4 -23 6 0 11 -5 11 -11 0 -8 -4 -8 -14 0 -9 8 -16 8
-20 2 -4 -6 -13 -8 -21 -4 -8 3 -15 1 -15 -4 0 -5 -6 -10 -14 -10 -8 0 -12 6
-9 14 3 7 8 11 12 9 4 -3 13 -1 20 3 9 6 10 11 2 15 -6 4 -11 3 -11 -1 0 -14
-43 -13 -53 0 -7 9 -10 9 -14 0 -5 -14 -6 -13 -48 36 -11 12 -15 22 -10 21 26
-6 37 1 32 20 -3 11 -1 18 4 14 5 -3 9 -1 9 5 0 8 16 13 67 20 6 0 15 -14 19
-31z m301 26 c-3 -3 -12 -4 -19 -1 -8 3 -5 6 6 6 11 1 17 -2 13 -5z m436 -18
c28 -3 47 -19 47 -41 0 -10 48 -35 75 -39 25 -4 26 -12 3 -32 -12 -10 -18 -13
-14 -6 5 8 1 12 -11 12 -15 0 -16 2 -3 10 13 8 12 10 -2 10 -10 0 -18 5 -18
11 0 5 -4 8 -9 5 -5 -3 -14 1 -21 9 -7 8 -17 12 -24 8 -6 -4 -5 0 2 9 11 14
11 16 -2 14 -9 -1 -18 -5 -22 -8 -3 -4 -14 1 -25 10 -11 9 -24 18 -29 18 -6 1
-20 2 -32 3 -22 2 -22 3 -3 11 11 5 29 7 40 4 11 -3 33 -7 48 -8z m-1173 0 c0
-3 -4 -8 -10 -11 -5 -3 -10 -1 -10 4 0 6 5 11 10 11 6 0 10 -2 10 -4z m-300
-16 c0 -5 -4 -10 -10 -10 -5 0 -10 5 -10 10 0 6 5 10 10 10 6 0 10 -4 10 -10z
m1002 -5 c14 0 18 -13 5 -18 -7 -3 -19 4 -26 15 -10 16 -10 19 1 12 7 -5 16
-9 20 -9z m-800 -20 c11 -14 25 -22 31 -19 7 4 5 -1 -5 -11 -17 -19 -38 -13
-38 11 0 8 -4 13 -9 10 -5 -3 -15 2 -22 11 -10 12 -10 14 -1 9 6 -4 12 -2 12
3 0 18 11 13 32 -14z m358 15 c0 -5 -2 -10 -4 -10 -3 0 -8 5 -11 10 -3 6 -1
10 4 10 6 0 11 -4 11 -10z m270 -15 c0 -2 -9 -3 -19 -2 -11 0 -18 5 -15 9 4 6
34 0 34 -7z m-430 -14 c0 -5 -7 -17 -16 -25 -14 -15 -12 -16 18 -17 18 -1 25
-3 15 -6 -26 -7 -69 6 -62 17 9 14 -8 12 -25 -2 -12 -11 -12 -10 -2 3 6 9 10
18 7 21 -3 2 9 2 26 0 22 -3 30 -1 25 7 -4 6 -2 11 3 11 6 0 11 -4 11 -9z
m713 -60 c-2 -15 3 -21 17 -21 11 0 20 -2 20 -4 0 -2 3 -13 7 -23 7 -17 6 -17
-12 0 -13 13 -20 15 -25 7 -6 -9 -9 -9 -15 0 -4 6 -13 9 -21 6 -14 -6 -9 18
10 43 9 12 8 13 -3 6 -10 -6 -12 -4 -7 4 12 19 31 6 29 -18z m236 13 c1 -1 0
-7 -3 -12 -4 -7 -15 -6 -30 1 -29 14 -23 31 7 21 12 -3 24 -8 26 -10z m-872 0
c-3 -3 -12 -4 -19 -1 -8 3 -5 6 6 6 11 1 17 -2 13 -5z m767 -26 c-3 -4 -10 -8
-15 -8 -6 0 -7 5 -4 10 3 6 1 10 -4 10 -6 0 -11 5 -11 10 0 6 8 5 19 -2 11 -7
17 -16 15 -20z m334 -8 c11 0 12 -3 3 -14 -8 -10 -9 -16 -1 -19 6 -3 5 -4 -2
-3 -7 2 -13 7 -13 12 0 16 -16 34 -25 29 -5 -3 -7 -13 -4 -23 5 -16 5 -16 -6
1 -6 9 -19 17 -28 17 -14 0 -15 2 -2 9 8 6 18 7 22 5 5 -3 11 3 15 12 6 16 8
15 16 -4 6 -12 17 -22 25 -22z m-1236 8 c-7 -7 -12 -8 -12 -2 0 14 12 26 19
19 2 -3 -1 -11 -7 -17z m77 -5 c0 -11 -3 -13 -6 -5 -2 6 -9 10 -13 7 -5 -3 -7
-12 -4 -19 3 -8 1 -17 -5 -21 -7 -3 -8 0 -5 9 4 11 0 16 -10 16 -9 0 -16 4
-16 10 0 5 6 7 14 4 8 -3 17 -1 21 5 10 17 25 13 24 -6z m265 2 c-4 -8 -2 -15
3 -15 5 0 10 -6 10 -14 0 -8 -6 -12 -14 -9 -7 3 -11 8 -9 12 3 4 1 13 -4 21
-7 11 -11 11 -24 1 -9 -8 -16 -9 -16 -3 0 12 17 20 42 21 12 1 15 -4 12 -14z
m616 5 c0 -5 -10 -10 -22 -9 -22 0 -22 1 -3 9 11 5 21 9 23 9 1 1 2 -3 2 -9z
m-105 -10 c-3 -5 -12 -10 -18 -10 -7 0 -6 4 3 10 19 12 23 12 15 0z m179 -2
c-3 -4 2 -8 10 -8 9 0 16 -4 16 -9 0 -5 8 -8 18 -6 30 4 43 -14 25 -35 -9 -11
-21 -16 -27 -12 -6 3 -20 8 -30 9 -11 2 -25 8 -31 13 -7 5 -16 6 -20 2 -5 -4
-6 1 -2 10 3 9 0 19 -9 22 -9 3 -14 -1 -14 -14 0 -24 -15 -33 -28 -17 -14 17
-2 36 26 40 12 2 24 6 28 9 9 9 44 5 38 -4z m-790 -24 c14 -21 23 -24 51 -20
28 5 33 3 29 -9 -4 -8 -10 -13 -14 -10 -5 3 -11 1 -15 -5 -3 -5 -22 -17 -41
-26 -30 -14 -37 -15 -44 -4 -5 8 -6 18 -3 24 3 5 1 6 -5 2 -6 -4 -9 -13 -6
-21 4 -10 0 -13 -15 -10 -15 3 -18 0 -14 -13 4 -10 8 -12 11 -4 2 7 8 10 12 7
5 -3 7 -12 4 -20 -4 -8 -10 -12 -15 -9 -5 3 -9 0 -9 -5 0 -6 4 -11 9 -11 5 0
8 -8 6 -17 -2 -10 -4 -21 -4 -24 -2 -18 -30 -16 -34 3 -5 16 -2 19 14 15 10
-3 16 -1 13 4 -3 5 -24 7 -46 4 l-41 -5 29 22 c16 13 32 22 37 20 5 -1 6 6 2
17 -4 13 0 23 11 29 16 9 15 12 -10 37 -17 17 -21 25 -11 21 9 -3 21 -6 26 -6
6 0 8 -4 4 -9 -3 -5 -1 -12 5 -16 5 -3 10 -1 10 5 0 6 12 8 31 5 29 -5 30 -4
15 10 -9 9 -14 20 -11 25 3 5 -1 11 -7 13 -8 4 -9 6 -2 6 7 1 19 -10 28 -25z
m203 12 c0 -8 -6 -12 -14 -9 -7 3 -10 9 -7 14 8 14 21 11 21 -5z m833 10 c0
-3 -4 -8 -10 -11 -5 -3 -10 -1 -10 4 0 6 5 11 10 11 6 0 10 -2 10 -4z m-1103
-12 c-3 -3 -12 -4 -19 -1 -8 3 -5 6 6 6 11 1 17 -2 13 -5z m538 -4 c3 -6 -1
-7 -9 -4 -18 7 -21 14 -7 14 6 0 13 -4 16 -10z m205 0 c-8 -5 -28 -9 -45 -9
-26 0 -27 2 -10 9 11 5 31 9 45 9 20 1 22 -1 10 -9z m-1108 -37 c-16 -7 -32
-19 -35 -28 -4 -8 -17 -15 -29 -14 -22 1 -22 1 2 9 14 4 20 8 13 9 -18 2 -4
36 20 47 15 6 28 6 40 -1 16 -9 15 -11 -11 -22z m1558 33 c0 -2 -7 -6 -15 -10
-8 -3 -15 -1 -15 4 0 6 7 10 15 10 8 0 15 -2 15 -4z m-1392 -19 c8 -10 6 -13
-7 -13 -11 0 -17 6 -14 13 3 7 6 13 8 13 1 0 7 -6 13 -13z m927 -7 c3 -5 -1
-10 -10 -10 -9 0 -13 5 -10 10 3 6 8 10 10 10 2 0 7 -4 10 -10z m413 1 c2 -1
-4 -8 -12 -17 -9 -8 -20 -12 -26 -9 -5 3 -10 1 -10 -6 0 -7 -3 -10 -6 -7 -3 3
0 15 7 26 10 17 20 19 47 13z m-1181 -16 c0 -6 -12 -10 -26 -9 -14 0 -31 -6
-38 -15 -8 -10 -12 -11 -13 -4 0 16 38 42 60 40 9 0 17 -6 17 -12z m254 -1
c-2 -5 -13 -8 -24 -6 -11 2 -17 -1 -13 -7 4 -5 -2 -15 -13 -21 -14 -7 -22 -7
-26 0 -4 6 -3 10 2 9 22 -4 32 3 28 20 -3 16 1 19 23 17 15 -2 25 -7 23 -12z
m749 -4 c0 -5 -2 -10 -4 -10 -3 0 -8 5 -11 10 -3 6 -1 10 4 10 6 0 11 -4 11
-10z m-1320 -10 c0 -5 -4 -10 -10 -10 -5 0 -10 5 -10 10 0 6 5 10 10 10 6 0
10 -4 10 -10z m1060 6 c0 -3 -4 -8 -10 -11 -5 -3 -10 -1 -10 4 0 6 5 11 10 11
6 0 10 -2 10 -4z m450 0 c0 -3 -4 -8 -10 -11 -5 -3 -10 -1 -10 4 0 6 5 11 10
11 6 0 10 -2 10 -4z m-1200 -16 c8 -5 11 -12 7 -16 -3 -4 -13 -2 -20 4 -8 7
-18 8 -22 4 -5 -4 -5 -1 -1 6 9 14 16 15 36 2z m-226 -8 c3 -5 0 -9 -7 -9 -7
0 -21 -4 -32 -7 -13 -5 -12 -2 5 8 30 18 28 18 34 8z m490 0 c2 -4 -4 -8 -14
-8 -10 0 -16 4 -14 8 3 4 9 8 14 8 5 0 11 -4 14 -8z m291 -10 c-3 -3 -11 0
-18 7 -9 10 -8 11 6 5 10 -3 15 -9 12 -12z m545 14 c0 -2 -7 -7 -16 -10 -8 -3
-12 -2 -9 4 6 10 25 14 25 6z m-1585 -16 c-3 -5 3 -10 14 -10 11 0 23 -4 26
-10 3 -5 11 -10 16 -10 6 0 7 5 4 10 -3 6 0 10 7 11 7 0 21 2 31 4 9 2 15 0
12 -5 -3 -5 1 -11 7 -13 7 -3 1 -6 -14 -6 -38 -1 -36 -18 2 -19 17 0 30 4 30
12 0 15 38 15 44 0 3 -7 -5 -15 -17 -19 -35 -11 -41 -12 -54 -3 -6 5 -14 5
-18 -1 -4 -7 -15 -5 -32 6 -15 10 -37 16 -50 15 -27 -4 -44 25 -22 39 18 11
22 11 14 -1z m435 0 c35 10 62 -12 41 -33 -10 -9 -15 -9 -24 3 -14 18 -37 24
-37 10 0 -5 -6 -7 -13 -4 -8 3 -14 12 -14 20 0 9 4 11 10 5 5 -5 21 -6 37 -1z
m209 -3 c6 -8 8 -17 4 -20 -3 -4 -1 -7 5 -7 5 0 12 3 15 8 2 4 3 2 1 -5 -4
-18 8 -24 24 -10 13 10 14 9 4 -9 -8 -16 -18 -19 -46 -16 -39 5 -56 30 -30 45
13 8 14 11 3 18 -8 5 -9 9 -3 9 6 0 17 -6 23 -13z m-703 -17 c0 -12 -4 -16 -9
-11 -5 5 -6 14 -3 20 10 15 12 14 12 -9z m656 2 c-2 -7 -10 -11 -18 -8 -7 3
-15 -3 -17 -12 -3 -9 -4 -6 -4 8 1 19 6 25 23 25 14 0 20 -5 16 -13z m-327 -2
c-3 -5 -14 -10 -23 -9 -14 0 -13 2 3 9 27 11 27 11 20 0z m52 -5 c0 -8 -4 -12
-9 -9 -5 3 -6 10 -3 15 9 13 12 11 12 -6z m1323 1 c0 -3 -4 -8 -10 -11 -5 -3
-10 -1 -10 4 0 6 5 11 10 11 6 0 10 -2 10 -4z m-1257 -13 c-7 -2 -19 -2 -25 0
-7 3 -2 5 12 5 14 0 19 -2 13 -5z m43 -8 c-1 -8 -5 -17 -8 -21 -5 -4 -4 16 1
34 3 9 9 -1 7 -13z m1245 1 c-10 -11 -8 -15 6 -19 16 -4 16 -5 1 -6 -23 -1
-34 19 -17 30 20 13 23 11 10 -5z m-1327 -17 c-3 -5 -10 -7 -15 -3 -5 3 -7 10
-3 15 3 5 10 7 15 3 5 -3 7 -10 3 -15z m754 -8 c3 -9 0 -11 -8 -6 -8 5 -18 1
-25 -9 -12 -15 -13 -15 -11 7 1 17 7 24 20 23 11 -1 21 -7 24 -15z m-1138 -1
c0 -5 -5 -10 -11 -10 -5 0 -7 5 -4 10 3 6 8 10 11 10 2 0 4 -4 4 -10z m435 1
c-9 -8 -36 -10 -30 -2 2 4 11 8 20 8 8 0 13 -3 10 -6z m225 -13 c0 -10 -9 -9
-35 2 -17 8 -16 8 8 7 15 -1 27 -5 27 -9z m1024 -3 c-4 -8 -10 -15 -15 -15 -4
0 -6 7 -3 15 4 8 10 15 15 15 4 0 6 -7 3 -15z m-1534 -7 c0 -4 -7 -8 -15 -8
-8 0 -15 4 -15 8 0 5 7 9 15 9 8 0 15 -4 15 -9z m-173 -4 c-3 -3 -12 -4 -19
-1 -8 3 -5 6 6 6 11 1 17 -2 13 -5z m103 -14 c0 -5 -5 -10 -11 -10 -5 0 -7 5
-4 10 3 6 8 10 11 10 2 0 4 -4 4 -10z m415 0 c-27 -12 -35 -12 -35 0 0 6 12
10 28 9 24 0 25 -1 7 -9z m-268 -6 c-3 -3 -12 -4 -19 -1 -8 3 -5 6 6 6 11 1
17 -2 13 -5z"/>
<path d="M765 379 c-11 -16 -1 -19 13 -3 7 8 8 14 3 14 -5 0 -13 -5 -16 -11z"/>
<path d="M814 358 c-4 -6 -3 -8 4 -4 5 3 13 0 15 -6 3 -8 6 -6 6 5 1 19 -14
23 -25 5z"/>
<path d="M746 342 c-12 -20 11 -40 27 -23 8 9 8 12 0 7 -6 -3 -13 1 -15 11 -3
14 -5 15 -12 5z"/>
<path d="M806 315 c-3 -9 0 -15 10 -15 8 0 13 4 10 9 -4 5 0 12 6 14 8 4 7 6
-3 6 -9 1 -19 -6 -23 -14z"/>
<path d="M1395 221 c-3 -5 -2 -12 3 -15 5 -3 9 1 9 9 0 17 -3 19 -12 6z"/>
<path d="M1490 210 c0 -5 5 -10 11 -10 5 0 7 5 4 10 -3 6 -8 10 -11 10 -2 0
-4 -4 -4 -10z"/>
<path d="M1520 201 c0 -6 4 -13 10 -16 6 -3 7 1 4 9 -7 18 -14 21 -14 7z"/>
<path d="M685 170 c-3 -6 1 -7 9 -4 18 7 21 14 7 14 -6 0 -13 -4 -16 -10z"/>
<path d="M550 120 c0 -5 5 -10 10 -10 6 0 10 5 10 10 0 6 -4 10 -10 10 -5 0
-10 -4 -10 -10z"/>
<path d="M715 100 c3 -5 16 -10 28 -10 18 0 19 2 7 10 -20 13 -43 13 -35 0z"/>
<path d="M495 700 c4 -6 11 -8 16 -5 14 9 11 15 -7 15 -8 0 -12 -5 -9 -10z"/>
<path d="M593 695 c0 -8 2 -13 4 -11 3 2 18 0 34 -4 16 -5 27 -5 24 0 -3 5 3
11 12 13 10 3 2 4 -17 2 -19 -1 -40 1 -46 6 -7 5 -11 3 -11 -6z"/>
<path d="M556 692 c-3 -5 1 -9 9 -9 8 0 12 4 9 9 -3 4 -7 8 -9 8 -2 0 -6 -4
-9 -8z"/>
<path d="M448 683 c7 -3 16 -2 19 1 4 3 -2 6 -13 5 -11 0 -14 -3 -6 -6z"/>
<path d="M1140 680 c0 -5 -7 -10 -15 -10 -8 0 -15 -6 -15 -14 0 -9 7 -12 20
-9 17 4 30 43 15 43 -3 0 -5 -4 -5 -10z"/>
<path d="M410 672 c0 -5 -9 -13 -20 -18 -19 -8 -19 -10 -3 -20 11 -7 26 -8 38
-2 18 8 18 8 -2 4 -13 -2 -26 0 -29 5 -5 8 9 13 29 10 11 -2 9 17 -3 24 -5 3
-10 2 -10 -3z"/>
<path d="M690 670 c12 -8 13 -12 2 -19 -11 -6 -10 -10 3 -15 24 -9 1 -36 -31
-36 -14 0 -33 -6 -44 -12 -17 -11 -22 -10 -29 1 -6 9 -8 5 -8 -14 0 -15 2 -22
6 -16 10 15 62 17 91 2 21 -10 23 -10 8 2 -15 12 -15 14 2 25 16 9 18 9 14 -2
-3 -7 1 -16 10 -19 11 -4 14 1 12 23 -1 16 -5 33 -9 36 -15 16 -7 35 12 29 21
-6 38 10 21 20 -5 3 -10 2 -10 -4 0 -7 -8 -7 -26 -1 -32 13 -43 12 -24 0z"/>
<path d="M1185 670 c-4 -6 -12 -7 -18 -3 -7 4 -6 0 2 -10 18 -23 30 -21 28 3
-1 23 -3 24 -12 10z"/>
<path d="M178 663 c7 -3 16 -2 19 1 4 3 -2 6 -13 5 -11 0 -14 -3 -6 -6z"/>
<path d="M215 651 c-3 -5 -2 -12 3 -15 5 -3 9 1 9 9 0 17 -3 19 -12 6z"/>
<path d="M242 638 c3 -7 11 -13 19 -13 21 0 61 -38 48 -46 -7 -4 -5 -8 4 -12
9 -3 21 1 28 9 10 12 10 15 -2 12 -8 -2 -13 3 -11 10 1 6 -3 12 -9 12 -6 0
-22 9 -36 20 -29 23 -47 26 -41 8z"/>
<path d="M740 641 c-18 -5 -21 -9 -11 -15 8 -5 19 -2 29 8 9 9 14 16 12 15 -3
-1 -16 -4 -30 -8z"/>
<path d="M460 636 c0 -2 7 -6 15 -10 8 -3 15 -1 15 4 0 6 -7 10 -15 10 -8 0
-15 -2 -15 -4z"/>
<path d="M588 623 c6 -2 18 -2 25 0 6 3 1 5 -13 5 -14 0 -19 -2 -12 -5z"/>
<path d="M1067 619 c7 -7 15 -10 18 -7 3 3 -2 9 -12 12 -14 6 -15 5 -6 -5z"/>
<path d="M1105 620 c-3 -5 -1 -10 4 -10 6 0 11 5 11 10 0 6 -2 10 -4 10 -3 0
-8 -4 -11 -10z"/>
<path d="M5 589 c-4 -6 -5 -12 -2 -15 2 -3 7 2 10 11 7 17 1 20 -8 4z"/>
<path d="M177 586 c-24 -18 -21 -26 8 -26 15 0 25 6 25 14 0 22 -13 26 -33 12z"/>
<path d="M540 586 c0 -2 7 -7 16 -10 8 -3 12 -2 9 4 -6 10 -25 14 -25 6z"/>
<path d="M225 570 c3 -5 11 -10 16 -10 6 0 7 5 4 10 -3 6 -11 10 -16 10 -6 0
-7 -4 -4 -10z"/>
<path d="M1105 561 c-3 -5 -2 -12 3 -15 5 -3 9 1 9 9 0 17 -3 19 -12 6z"/>
<path d="M1167 559 c7 -7 15 -10 18 -7 3 3 -2 9 -12 12 -14 6 -15 5 -6 -5z"/>
<path d="M1215 560 c-3 -5 -1 -10 4 -10 6 0 11 -4 11 -10 0 -5 -7 -7 -15 -4
-8 4 -15 2 -15 -3 0 -5 9 -9 20 -10 13 -1 20 4 20 15 0 15 2 15 10 2 8 -13 10
-13 10 1 0 9 -7 20 -16 23 -21 8 -22 8 -29 -4z"/>
<path d="M1308 544 c6 -12 20 -20 31 -19 30 2 38 15 10 15 -14 0 -31 6 -38 13
-11 10 -12 8 -3 -9z"/>
<path d="M345 540 c3 -5 12 -7 20 -3 21 7 19 13 -6 13 -11 0 -18 -4 -14 -10z"/>
<path d="M410 542 c0 -6 6 -13 13 -15 9 -4 9 -8 -1 -15 -8 -5 -13 -12 -13 -16
2 -17 0 -20 -8 -7 -6 9 -14 10 -26 4 -16 -9 -16 -11 0 -26 9 -10 21 -15 26
-11 5 3 8 0 7 -6 -2 -7 7 -16 20 -21 14 -5 22 -5 22 2 0 7 11 9 25 7 18 -4 22
-2 16 6 -5 6 -11 22 -13 35 -1 14 -10 26 -18 28 -12 4 -12 3 -1 -5 10 -7 10
-11 1 -17 -14 -9 -30 12 -24 30 3 6 -2 18 -11 25 -9 7 -15 8 -15 2z"/>
<path d="M215 530 c3 -5 8 -10 11 -10 2 0 4 5 4 10 0 6 -5 10 -11 10 -5 0 -7
-4 -4 -10z"/>
<path d="M243 525 c0 -8 5 -11 10 -8 6 4 8 0 4 -10 -3 -10 -2 -17 2 -17 11 0
24 31 16 38 -3 3 -5 2 -5 -3 0 -4 -6 -2 -13 4 -10 8 -14 7 -14 -4z"/>
<path d="M468 533 c6 -2 18 -2 25 0 6 3 1 5 -13 5 -14 0 -19 -2 -12 -5z"/>
<path d="M1274 525 c-4 -8 -10 -13 -14 -10 -5 3 -11 1 -14 -3 -3 -5 18 -9 46
-9 38 0 45 3 29 9 -13 4 -28 5 -34 1 -6 -4 -8 0 -4 10 3 10 4 17 1 17 -2 0 -7
-7 -10 -15z"/>
<path d="M297 519 c7 -7 15 -10 18 -7 3 3 -2 9 -12 12 -14 6 -15 5 -6 -5z"/>
<path d="M1116 522 c-2 -4 4 -8 14 -8 10 0 16 4 14 8 -3 4 -9 8 -14 8 -5 0
-11 -4 -14 -8z"/>
<path d="M86 511 c-3 -5 1 -11 9 -15 8 -3 12 -12 9 -20 -9 -23 10 -26 42 -5
16 10 23 19 17 19 -7 0 -13 5 -13 11 0 5 5 7 10 4 6 -3 10 -2 10 4 0 15 -39 9
-45 -7 -3 -8 0 -10 7 -6 7 4 8 3 4 -5 -9 -14 -26 -5 -26 15 0 16 -16 19 -24 5z"/>
<path d="M656 501 c-26 -5 -28 -7 -13 -20 12 -9 17 -10 17 -2 0 8 5 9 18 2 14
-7 18 -6 18 10 0 10 -3 18 -6 18 -3 -1 -18 -4 -34 -8z"/>
<path d="M1373 484 c-9 -9 -10 -15 -2 -20 14 -8 30 8 21 22 -5 9 -10 8 -19 -2z"/>
<path d="M175 471 c-26 -22 -30 -41 -8 -41 9 0 13 3 10 7 -4 3 0 15 10 25 22
24 13 31 -12 9z"/>
<path d="M496 481 c-4 -5 -2 -12 3 -15 5 -4 12 -2 15 3 4 5 2 12 -3 15 -5 4
-12 2 -15 -3z"/>
<path d="M1066 469 c-16 -16 -17 -19 -4 -19 9 0 19 6 21 13 4 9 6 9 6 -1 1 -7
6 -10 11 -7 6 3 10 1 10 -4 0 -6 5 -11 11 -11 5 0 7 6 3 13 -6 9 -4 9 7 1 21
-17 149 -26 149 -11 0 7 4 6 10 -3 8 -12 10 -9 10 12 0 14 -5 28 -12 30 -18 6
-68 -3 -63 -12 3 -5 15 -6 28 -3 12 3 19 2 14 -2 -11 -12 -97 -14 -97 -2 0 5
-7 4 -15 -3 -13 -11 -14 -10 -9 3 5 13 0 15 -22 11 -15 -3 -30 -1 -33 4 -3 5
-15 1 -25 -9z"/>
<path d="M1432 477 c-8 -10 -6 -13 8 -14 13 -1 17 3 13 13 -6 17 -8 17 -21 1z"/>
<path d="M1657 473 c-3 -5 -2 -15 2 -22 5 -7 11 -9 14 -4 3 5 2 15 -2 22 -5 7
-11 9 -14 4z"/>
<path d="M706 462 c-3 -5 1 -9 9 -9 8 0 12 4 9 9 -3 4 -7 8 -9 8 -2 0 -6 -4
-9 -8z"/>
<path d="M308 423 c5 -27 11 -25 16 4 3 11 -1 20 -8 20 -8 0 -11 -9 -8 -24z"/>
<path d="M1315 440 c-3 -6 1 -7 9 -4 18 7 21 14 7 14 -6 0 -13 -4 -16 -10z"/>
<path d="M1355 440 c3 -5 8 -10 11 -10 2 0 4 5 4 10 0 6 -5 10 -11 10 -5 0 -7
-4 -4 -10z"/>
<path d="M1630 441 c0 -5 5 -13 10 -16 6 -3 10 -2 10 4 0 5 -4 13 -10 16 -5 3
-10 2 -10 -4z"/>
<path d="M417 404 c3 -8 11 -14 19 -14 21 0 17 17 -5 23 -14 3 -18 1 -14 -9z"/>
<path d="M1416 408 c3 -5 10 -6 15 -3 13 9 11 12 -6 12 -8 0 -12 -4 -9 -9z"/>
<path d="M1375 401 c-3 -6 3 -15 14 -21 13 -7 22 -7 26 0 3 5 -3 10 -15 10
-12 0 -18 5 -15 10 3 6 4 10 1 10 -3 0 -7 -4 -11 -9z"/>
<path d="M7 363 c-12 -12 -8 -34 6 -27 10 6 10 4 0 -7 -13 -13 -18 -69 -7 -69
7 0 34 27 34 35 0 3 -6 3 -13 0 -6 -4 -2 2 10 13 15 13 18 23 12 33 -7 12 -9
12 -9 0 0 -11 -3 -11 -15 -1 -8 7 -12 16 -9 21 6 11 0 12 -9 2z"/>
<path d="M1320 360 c0 -5 5 -10 10 -10 6 0 10 5 10 10 0 6 -4 10 -10 10 -5 0
-10 -4 -10 -10z"/>
<path d="M1353 355 c0 -8 4 -12 9 -9 4 3 8 9 8 15 0 5 -4 9 -8 9 -5 0 -9 -7
-9 -15z"/>
<path d="M1365 300 c-3 -5 -1 -10 4 -10 6 0 11 5 11 10 0 6 -2 10 -4 10 -3 0
-8 -4 -11 -10z"/>
<path d="M110 296 c0 -2 7 -7 16 -10 8 -3 12 -2 9 4 -6 10 -25 14 -25 6z"/>
<path d="M165 290 c-3 -5 -1 -10 4 -10 6 0 11 5 11 10 0 6 -2 10 -4 10 -3 0
-8 -4 -11 -10z"/>
<path d="M1842 271 c-11 -7 -11 -9 0 -14 9 -3 15 1 15 9 0 8 -1 14 -1 14 -1 0
-7 -4 -14 -9z"/>
<path d="M37 259 c7 -7 15 -10 18 -7 3 3 -2 9 -12 12 -14 6 -15 5 -6 -5z"/>
<path d="M0 230 c0 -5 5 -10 11 -10 5 0 7 5 4 10 -3 6 -8 10 -11 10 -2 0 -4
-4 -4 -10z"/>
<path d="M1745 10 c-19 -8 -19 -9 3 -9 12 -1 22 4 22 9 0 6 -1 10 -2 9 -2 0
-12 -4 -23 -9z"/>
</g>
</svg>
