<?xml version="1.0" encoding="UTF-8"?>
<svg id="uuid-8eee168d-212f-41dc-b6c3-8339a011c88e" data-name="Layer 1" xmlns="http://www.w3.org/2000/svg" viewBox="0 0 625.22 764.68">
  <defs>
    <style>
      .uuid-75fbd0d7-f9bd-49d4-8b14-3effaae1883b {
        stroke-width: 0px;
      }
    </style>
  </defs>
  <path class="uuid-75fbd0d7-f9bd-49d4-8b14-3effaae1883b" d="m499.34,77.12C449.6,27.39,383.29,0,312.61,0S175.88,27.45,126.04,77.28s-77.28,116.09-77.28,186.57c0,41.73,9.46,81.64,28.12,118.64,11.53,22.88,26.55,44.1,44.23,62.79-9.91,15.36-7.64,36.13,6.28,48.89l16.15,14.82c7.11,6.53,16.22,10.07,25.82,10.07.56,0,1.12-.01,1.68-.04,10.2-.44,19.63-4.82,26.54-12.35,14.26-15.53,13.22-39.77-2.32-54.03l-16.15-14.82c-13.93-12.78-34.84-13.26-49.29-2.04-43.68-46.21-68.12-107.01-68.12-171.94C61.69,125.49,174.25,12.93,312.61,12.93c67.23,0,130.29,26.04,177.58,73.34,47.29,47.29,73.33,110.36,73.33,177.58,0,88.48-45.22,168.74-120.96,214.69-25.3,15.35-55.87,15.81-81.75,1.24-26.14-14.71-41.74-41.37-41.74-71.31v-16.94h109.83c7.51,0,13.48-5.43,13.05-11.87l-14.42-213.76c-.62-9.1-9.39-16.22-20.03-16.22h-24.5c-1.3-37.8-32.27-68.2-70.39-68.2s-69.08,30.4-70.39,68.2h-24.5c-10.64,0-19.4,7.12-20.03,16.22l-14.42,213.76c-.43,6.44,5.54,11.87,13.05,11.87h109.83v16.94c0,34.67,18.07,65.54,48.33,82.57,14.58,8.21,30.43,12.3,46.25,12.3,16.75,0,33.46-4.59,48.55-13.75,38.09-23.11,69.96-55.72,92.18-94.32,22.9-39.79,35.01-85.24,35.01-131.41,0-70.68-27.39-136.99-77.12-186.73ZM170.36,447.34l16.15,14.82c4.98,4.57,7.88,10.81,8.17,17.56.29,6.75-2.07,13.22-6.64,18.2h0c-9.44,10.28-25.48,10.97-35.76,1.53l-16.15-14.82c-8.47-7.78-10.41-20.03-5.56-29.86,6.85,6.55,14.04,12.74,21.55,18.5l7.87-10.26c-7.36-5.65-14.34-11.66-20.95-17.96,4.26-2.89,9.23-4.37,14.22-4.37,6.12,0,12.25,2.2,17.1,6.65ZM312.61,103.07c26.22,0,47.5,20.72,48.8,46.61h-97.59c1.29-25.89,22.58-46.61,48.8-46.61Z"/>
  <g>
    <g>
      <path class="uuid-75fbd0d7-f9bd-49d4-8b14-3effaae1883b" d="m115.53,759.97c1.57.97,3.86,1.77,6.28,1.77,3.58,0,5.67-1.89,5.67-4.63,0-2.53-1.45-3.98-5.11-5.39-4.43-1.57-7.16-3.86-7.16-7.69,0-4.23,3.5-7.37,8.77-7.37,2.78,0,4.79.64,6,1.33l-.97,2.86c-.89-.49-2.7-1.29-5.15-1.29-3.7,0-5.11,2.21-5.11,4.06,0,2.53,1.65,3.78,5.39,5.23,4.59,1.77,6.92,3.98,6.92,7.97,0,4.18-3.1,7.81-9.5,7.81-2.62,0-5.47-.76-6.92-1.73l.89-2.94Z"/>
      <path class="uuid-75fbd0d7-f9bd-49d4-8b14-3effaae1883b" d="m151.95,737.11h3.5v24.19h11.59v2.94h-15.09v-27.13Z"/>
      <path class="uuid-75fbd0d7-f9bd-49d4-8b14-3effaae1883b" d="m208.66,750.39c0,9.34-5.68,14.29-12.6,14.29s-12.2-5.55-12.2-13.77,5.35-14.25,12.6-14.25,12.2,5.68,12.2,13.73Zm-21.05.44c0,5.8,3.14,10.99,8.65,10.99s8.69-5.11,8.69-11.27c0-5.39-2.82-11.03-8.65-11.03s-8.69,5.35-8.69,11.31Z"/>
      <path class="uuid-75fbd0d7-f9bd-49d4-8b14-3effaae1883b" d="m249.95,763.03c-1.57.56-4.67,1.49-8.33,1.49-4.1,0-7.48-1.05-10.14-3.58-2.33-2.26-3.78-5.88-3.78-10.1.04-8.09,5.59-14,14.69-14,3.14,0,5.59.69,6.76,1.25l-.84,2.86c-1.45-.64-3.26-1.17-6-1.17-6.6,0-10.91,4.1-10.91,10.91s4.15,10.95,10.47,10.95c2.29,0,3.86-.32,4.67-.72v-8.09h-5.51v-2.82h8.93v13.04Z"/>
      <path class="uuid-75fbd0d7-f9bd-49d4-8b14-3effaae1883b" d="m275.79,755.7l-2.82,8.53h-3.62l9.22-27.13h4.23l9.26,27.13h-3.74l-2.9-8.53h-9.62Zm8.89-2.73l-2.65-7.81c-.6-1.77-1.01-3.38-1.41-4.95h-.08c-.4,1.61-.85,3.26-1.37,4.91l-2.66,7.85h8.17Z"/>
      <path class="uuid-75fbd0d7-f9bd-49d4-8b14-3effaae1883b" d="m312.13,764.24v-27.13h3.82l8.69,13.72c2.01,3.18,3.58,6.04,4.87,8.82l.08-.04c-.32-3.62-.4-6.92-.4-11.15v-11.35h3.3v27.13h-3.54l-8.61-13.76c-1.89-3.02-3.7-6.12-5.07-9.06l-.12.04c.2,3.42.28,6.68.28,11.19v11.59h-3.3Z"/>
      <path class="uuid-75fbd0d7-f9bd-49d4-8b14-3effaae1883b" d="m382.84,737.11v11.35h13.12v-11.35h3.54v27.13h-3.54v-12.72h-13.12v12.72h-3.5v-27.13h3.5Z"/>
      <path class="uuid-75fbd0d7-f9bd-49d4-8b14-3effaae1883b" d="m435.72,751.52h-10.54v9.78h11.75v2.94h-15.25v-27.13h14.65v2.94h-11.15v8.57h10.54v2.9Z"/>
      <path class="uuid-75fbd0d7-f9bd-49d4-8b14-3effaae1883b" d="m457.58,737.47c1.77-.36,4.31-.56,6.72-.56,3.74,0,6.16.69,7.85,2.21,1.37,1.21,2.13,3.06,2.13,5.15,0,3.58-2.25,5.96-5.11,6.92v.12c2.09.73,3.34,2.66,3.98,5.48.89,3.78,1.53,6.4,2.09,7.44h-3.62c-.44-.76-1.04-3.1-1.81-6.48-.81-3.74-2.26-5.15-5.43-5.27h-3.3v11.75h-3.5v-26.76Zm3.5,12.36h3.58c3.74,0,6.12-2.05,6.12-5.15,0-3.5-2.53-5.03-6.24-5.07-1.69,0-2.9.16-3.46.32v9.9Z"/>
      <path class="uuid-75fbd0d7-f9bd-49d4-8b14-3effaae1883b" d="m509.37,751.52h-10.54v9.78h11.75v2.94h-15.26v-27.13h14.65v2.94h-11.15v8.57h10.54v2.9Z"/>
    </g>
    <g>
      <path class="uuid-75fbd0d7-f9bd-49d4-8b14-3effaae1883b" d="m66.52,677.93c0,22.69-13.76,36.45-33.98,36.45S0,698.87,0,679.16C0,658.42,13.24,642.92,33.67,642.92s32.85,15.91,32.85,35.01Zm-50,.92c0,13.55,6.36,23.1,16.84,23.1s16.63-10.06,16.63-23.51c0-12.42-5.95-23.1-16.73-23.1s-16.73,10.06-16.73,23.51Z"/>
      <path class="uuid-75fbd0d7-f9bd-49d4-8b14-3effaae1883b" d="m76.79,713.25v-69.19h18.27l14.37,25.36c4.11,7.29,8.21,15.91,11.29,23.71h.31c-1.03-9.14-1.33-18.48-1.33-28.85v-20.22h14.37v69.19h-16.43l-14.78-26.69c-4.11-7.39-8.62-16.32-12.01-24.43l-.31.1c.41,9.14.62,18.89.62,30.18v20.84h-14.37Z"/>
      <path class="uuid-75fbd0d7-f9bd-49d4-8b14-3effaae1883b" d="m147.63,644.05h15.71v56.05h27.51v13.14h-43.22v-69.19Z"/>
      <path class="uuid-75fbd0d7-f9bd-49d4-8b14-3effaae1883b" d="m215.8,644.05v69.19h-15.71v-69.19h15.71Z"/>
      <path class="uuid-75fbd0d7-f9bd-49d4-8b14-3effaae1883b" d="m229.35,713.25v-69.19h18.27l14.37,25.36c4.11,7.29,8.21,15.91,11.29,23.71h.31c-1.03-9.14-1.33-18.48-1.33-28.85v-20.22h14.37v69.19h-16.43l-14.78-26.69c-4.11-7.39-8.62-16.32-12.01-24.43l-.31.1c.41,9.14.62,18.89.62,30.18v20.84h-14.37Z"/>
      <path class="uuid-75fbd0d7-f9bd-49d4-8b14-3effaae1883b" d="m341.35,683.99h-25.46v16.43h28.44v12.83h-44.14v-69.19h42.71v12.83h-27v14.37h25.46v12.73Z"/>
      <path class="uuid-75fbd0d7-f9bd-49d4-8b14-3effaae1883b" d="m376.26,697.13c4.21,2.16,10.68,4.31,17.35,4.31,7.19,0,10.98-2.98,10.98-7.49s-3.29-6.78-11.6-9.75c-11.5-4-18.99-10.37-18.99-20.43,0-11.81,9.86-20.84,26.18-20.84,7.8,0,13.55,1.64,17.66,3.49l-3.49,12.63c-2.77-1.34-7.7-3.29-14.48-3.29s-10.06,3.08-10.06,6.67c0,4.42,3.9,6.37,12.83,9.75,12.22,4.52,17.97,10.88,17.97,20.63,0,11.6-8.93,21.46-27.92,21.46-7.91,0-15.71-2.05-19.61-4.21l3.18-12.94Z"/>
      <path class="uuid-75fbd0d7-f9bd-49d4-8b14-3effaae1883b" d="m446.89,644.05v26.59h25.77v-26.59h15.6v69.19h-15.6v-28.95h-25.77v28.95h-15.71v-69.19h15.71Z"/>
      <path class="uuid-75fbd0d7-f9bd-49d4-8b14-3effaae1883b" d="m565.26,677.93c0,22.69-13.76,36.45-33.98,36.45s-32.54-15.5-32.54-35.21c0-20.74,13.24-36.24,33.67-36.24s32.85,15.91,32.85,35.01Zm-50,.92c0,13.55,6.37,23.1,16.84,23.1s16.63-10.06,16.63-23.51c0-12.42-5.95-23.1-16.73-23.1s-16.73,10.06-16.73,23.51Z"/>
      <path class="uuid-75fbd0d7-f9bd-49d4-8b14-3effaae1883b" d="m575.53,644.98c4.82-.82,11.6-1.44,21.15-1.44s16.53,1.85,21.15,5.54c4.41,3.49,7.39,9.24,7.39,16.02s-2.26,12.53-6.36,16.43c-5.34,5.03-13.24,7.29-22.48,7.29-2.05,0-3.9-.1-5.34-.31v24.74h-15.5v-68.27Zm15.5,31.41c1.33.31,2.98.41,5.24.41,8.32,0,13.45-4.21,13.45-11.29,0-6.37-4.41-10.16-12.22-10.16-3.18,0-5.34.31-6.47.62v20.43Z"/>
    </g>
  </g>
</svg>