<svg width="50" height="34" viewBox="0 0 50 34" fill="none" xmlns="http://www.w3.org/2000/svg">
<rect x="0.166504" width="49.5833" height="34" rx="4.25" fill="white"/>
<rect x="0.666504" y="0.5" width="48.5833" height="33" rx="3.75" stroke="#CCD2E3" stroke-opacity="0.31"/>
<path d="M13.4544 12.2203H6.71388C5.83606 12.2203 5.125 12.9379 5.125 13.8223V20.62C5.125 21.5043 5.83606 22.222 6.71388 22.222H13.4544C14.3322 22.222 15.0424 21.5043 15.0424 20.62V13.8223C15.0433 12.937 14.3322 12.2203 13.4544 12.2203Z" fill="#1677FF"/>
<path d="M13.2905 18.5008C12.8942 18.3669 12.3611 18.1617 11.7681 17.9453C12.1241 17.3204 12.4089 16.6094 12.5963 15.8365H10.6411V15.1263H13.0357V14.7301H10.6411V13.5459H9.66397C9.49253 13.5459 9.49253 13.7164 9.49253 13.7164V14.7291H7.0708V15.1254H9.49253V15.8355H7.49238V16.2318H11.3709C11.2294 16.7246 11.0383 17.1883 10.8125 17.609C9.55436 17.1902 8.21094 16.8511 7.36778 17.06C6.82816 17.1939 6.4806 17.4328 6.27637 17.6839C5.33953 18.8334 6.01124 20.5797 7.98984 20.5797C9.15995 20.5797 10.287 19.922 11.1601 18.8381C12.4632 19.4695 15.0424 20.5544 15.0424 20.5544V19.0086C15.0433 19.0086 14.7192 18.9824 13.2905 18.5008ZM7.80529 19.9117C6.26231 19.9117 5.80607 18.6863 6.56866 18.0155C6.82348 17.7888 7.28815 17.6783 7.53548 17.6539C8.4517 17.5631 9.30048 17.9153 10.302 18.4081C9.59839 19.3337 8.70184 19.9117 7.80529 19.9117Z" fill="white"/>
<path d="M26.6599 13.6845C26.6599 14.2017 27.0384 14.5502 27.5658 14.5502C28.0933 14.5502 28.4718 14.2017 28.4718 13.6845C28.4718 13.1768 28.0933 12.8189 27.5658 12.8189C27.0384 12.8189 26.6599 13.1768 26.6599 13.6845Z" fill="#1677FF"/>
<path d="M25.7046 13.0372H24.1326V20.3014H25.7046V13.0372Z" fill="black"/>
<path d="M21.3762 13.2864H19.2665L16.9084 20.3024H18.3615L18.7596 18.929H21.2572L21.6357 20.3024H23.4963L21.3762 13.2864ZM19.0875 17.7841L20.0225 14.5502H20.0618L20.9472 17.7841H19.0875Z" fill="black"/>
<path d="M28.3518 14.968H26.7798V20.3024H28.3518V14.968Z" fill="black"/>
<path d="M44.7821 14.9783L44.7915 14.968H43.3094L42.3735 18.2123H42.3238L41.2493 14.968H39.488L41.6072 20.322L40.7219 21.954V21.9934H42.1046L44.7821 14.9783Z" fill="black"/>
<path d="M32.2631 14.8584C31.686 14.8584 31.2382 15.0776 30.7305 15.4955V14.968H29.1584V21.9934H30.7305V20.2518C31.0293 20.3314 31.3076 20.3717 31.6458 20.3717C33.0491 20.3717 34.3129 19.3365 34.3129 17.4956C34.3129 15.844 33.3976 14.8584 32.2631 14.8584ZM31.2673 19.3861C31.0883 19.3861 30.9188 19.3665 30.7295 19.3065V16.4211C31.0584 16.1925 31.3263 16.0829 31.6645 16.0829C32.2519 16.0829 32.7194 16.5503 32.7194 17.5462C32.7203 18.8194 32.0336 19.3861 31.2673 19.3861Z" fill="black"/>
<path d="M39.1789 18.9683V16.7396C39.1789 15.5254 38.4622 14.8584 37.1984 14.8584C36.3918 14.8584 35.8353 14.998 34.8198 15.3062L35.098 16.5307C36.0236 16.1128 36.4312 15.9339 36.8593 15.9339C37.3764 15.9339 37.606 16.3021 37.606 16.8698V16.9091C35.8044 17.2473 35.247 17.4366 34.8994 17.7851C34.6409 18.0437 34.5312 18.4118 34.5312 18.84C34.5312 19.8649 35.3276 20.412 36.0733 20.412C36.6307 20.412 37.0785 20.2031 37.6856 19.745L37.7952 20.3024H39.3672L39.1789 18.9683ZM37.6069 19.0086C37.1891 19.2372 36.9502 19.3271 36.6719 19.3271C36.2934 19.3271 36.0545 19.0779 36.0545 18.6807C36.0545 18.5317 36.0845 18.3819 36.2035 18.2629C36.3928 18.0736 36.7609 17.934 37.6069 17.7354V19.0086Z" fill="black"/>
</svg>
