<svg width="51" height="34" viewBox="0 0 51 34" fill="none" xmlns="http://www.w3.org/2000/svg">
<rect x="0.583252" width="49.5833" height="34" rx="4.25" fill="#1F72CD"/>
<rect x="1.08325" y="0.5" width="48.5833" height="33" rx="3.75" stroke="#CCD2E3" stroke-opacity="0.31"/>
<path fill-rule="evenodd" clip-rule="evenodd" d="M9.47237 12.0417L4.83325 22.3079H10.3869L11.0754 20.671H12.6492L13.3377 22.3079H19.4507V21.0586L19.9954 22.3079H23.1576L23.7023 21.0322V22.3079H36.4157L37.9616 20.7135L39.4091 22.3079L45.939 22.3211L41.2853 17.2034L45.939 12.0417H39.5104L38.0056 13.6066L36.6036 12.0417H22.7731L21.5854 14.6915L20.3699 12.0417H14.8278V13.2485L14.2113 12.0417H9.47237ZM10.547 13.4995H13.2541L16.3313 20.4611V13.4995H19.2968L21.6735 18.4909L23.864 13.4995H26.8147V20.8662H25.0192L25.0046 15.0937L22.387 20.8662H20.7809L18.1486 15.0937V20.8662H14.455L13.7547 19.2147H9.97155L9.27275 20.8647H7.29373L10.547 13.4995ZM35.758 13.4995H28.4573V20.8618H35.645L37.9616 18.4218L40.1945 20.8618H42.5288L39.136 17.202L42.5288 13.4995H40.2958L37.9909 15.9115L35.758 13.4995ZM11.864 14.7459L10.6176 17.6879H13.109L11.864 14.7459ZM30.26 16.3695V15.0248V15.0235H34.8154L36.8032 17.1741L34.7274 19.3365H30.26V17.8684H34.2429V16.3695H30.26Z" fill="white"/>
</svg>
