<svg width="24" height="16" viewBox="0 0 24 16" fill="none" xmlns="http://www.w3.org/2000/svg">
<path fill-rule="evenodd" clip-rule="evenodd" d="M11.9999 13.6043C10.7289 14.7011 9.08025 15.3632 7.2787 15.3632C3.25878 15.3632 0 12.0666 0 8C0 3.93342 3.25878 0.63681 7.2787 0.63681C9.08025 0.63681 10.7289 1.29892 11.9999 2.39572C13.2709 1.29892 14.9196 0.63681 16.7212 0.63681C20.7411 0.63681 23.9999 3.93342 23.9999 8C23.9999 12.0666 20.7411 15.3632 16.7212 15.3632C14.9196 15.3632 13.2709 14.7011 11.9999 13.6043Z" fill="#ED0006"/>
<path fill-rule="evenodd" clip-rule="evenodd" d="M12 13.6043C13.5651 12.2537 14.5574 10.2441 14.5574 8C14.5574 5.7559 13.5651 3.74627 12 2.39572C13.271 1.29892 14.9197 0.63681 16.7213 0.63681C20.7412 0.63681 23.9999 3.93342 23.9999 8C23.9999 12.0666 20.7412 15.3632 16.7213 15.3632C14.9197 15.3632 13.271 14.7011 12 13.6043Z" fill="#F9A000"/>
<path fill-rule="evenodd" clip-rule="evenodd" d="M12 13.6042C13.565 12.2536 14.5573 10.2441 14.5573 8C14.5573 5.75595 13.565 3.74636 12 2.39581C10.435 3.74636 9.44263 5.75595 9.44263 8C9.44263 10.2441 10.435 12.2536 12 13.6042Z" fill="#FF5E00"/>
</svg>
