<svg width="51" height="34" viewBox="0 0 51 34" fill="none" xmlns="http://www.w3.org/2000/svg">
<rect x="0.749756" width="49.5833" height="34" rx="4.25" fill="white"/>
<rect x="1.24976" y="0.5" width="48.5833" height="33" rx="3.75" stroke="#CCD2E3" stroke-opacity="0.31"/>
<path fill-rule="evenodd" clip-rule="evenodd" d="M22.0622 26.135L22.384 24.0821L21.667 24.0653H18.2429L20.6225 8.91605C20.6299 8.87017 20.6539 8.82759 20.6889 8.79729C20.7241 8.767 20.7689 8.75038 20.8158 8.75038H26.5893C28.5062 8.75038 29.8289 9.15078 30.5194 9.9412C30.8432 10.312 31.0494 10.6996 31.1492 11.126C31.2539 11.5734 31.2556 12.108 31.1535 12.7601L31.1461 12.8075V13.2254L31.4699 13.4096C31.7425 13.5549 31.9592 13.721 32.1254 13.9113C32.4023 14.2284 32.5814 14.6314 32.6571 15.109C32.7354 15.6003 32.7095 16.1851 32.5814 16.847C32.4337 17.6084 32.1949 18.2716 31.8723 18.8141C31.5758 19.314 31.1978 19.7288 30.7491 20.0501C30.3206 20.3554 29.8117 20.5872 29.2362 20.7356C28.6784 20.8814 28.0426 20.9549 27.3452 20.9549H26.8959C26.5747 20.9549 26.2626 21.0711 26.0176 21.2793C25.7719 21.4919 25.6095 21.7824 25.5597 22.1L25.5257 22.2849L24.9569 25.9034L24.9312 26.0362C24.9243 26.0783 24.9126 26.0992 24.8954 26.1134C24.88 26.1264 24.858 26.135 24.8364 26.135H22.0622Z" fill="#28356A"/>
<path fill-rule="evenodd" clip-rule="evenodd" d="M31.7768 12.8558C31.7597 12.9664 31.7399 13.0794 31.7178 13.1956C30.9565 17.1207 28.3515 18.4766 25.0247 18.4766H23.3307C22.9239 18.4766 22.5809 18.7732 22.5177 19.1762L21.4047 26.2641C21.3635 26.5288 21.5666 26.7672 21.8325 26.7672H24.8369C25.1926 26.7672 25.4948 26.5077 25.5509 26.1554L25.5804 26.0022L26.146 22.3979L26.1824 22.2002C26.2378 21.8467 26.5407 21.5871 26.8964 21.5871H27.3457C30.2565 21.5871 32.5352 20.4006 33.2012 16.9668C33.4793 15.5324 33.3354 14.3347 32.5992 13.4923C32.3764 13.2384 32.1001 13.0275 31.7768 12.8558Z" fill="#298FC2"/>
<path fill-rule="evenodd" clip-rule="evenodd" d="M30.9799 12.537C30.8635 12.5029 30.7435 12.4721 30.6204 12.4442C30.4966 12.417 30.3699 12.3929 30.2394 12.3718C29.7826 12.2977 29.2821 12.2626 28.7461 12.2626H24.2209C24.1093 12.2626 24.0034 12.2879 23.9088 12.3336C23.7 12.4343 23.545 12.6327 23.5074 12.8756L22.5447 18.9978L22.5171 19.1762C22.5804 18.7732 22.9233 18.4767 23.3302 18.4767H25.0241C28.3509 18.4767 30.9559 17.12 31.7173 13.1957C31.74 13.0795 31.7592 12.9665 31.7762 12.8558C31.5836 12.7532 31.375 12.6654 31.1504 12.5906C31.0949 12.5721 31.0376 12.5543 30.9799 12.537Z" fill="#22284F"/>
<path fill-rule="evenodd" clip-rule="evenodd" d="M23.5077 12.8756C23.5453 12.6327 23.7003 12.4343 23.9091 12.3343C24.0044 12.2884 24.1096 12.2631 24.2211 12.2631H28.7464C29.2824 12.2631 29.7829 12.2984 30.2396 12.3725C30.3701 12.3935 30.4969 12.4177 30.6207 12.4449C30.7438 12.4726 30.8638 12.5036 30.9801 12.5375C31.0379 12.5548 31.0951 12.5728 31.1512 12.5907C31.3758 12.6654 31.5846 12.7539 31.7772 12.8559C32.0037 11.4054 31.7753 10.4178 30.9943 9.52351C30.1331 8.53886 28.579 8.11752 26.5902 8.11752H20.8165C20.4103 8.11752 20.0638 8.41405 20.001 8.81774L17.5962 24.1228C17.5488 24.4256 17.7814 24.6988 18.0855 24.6988H21.65L23.5077 12.8756Z" fill="#28356A"/>
</svg>
