<svg width="49" height="34" viewBox="0 0 49 34" fill="none" xmlns="http://www.w3.org/2000/svg">
<rect width="49" height="33.6" rx="4.2" fill="white"/>
<rect x="0.5" y="0.5" width="48" height="32.6" rx="3.7" stroke="#CCD2E3" stroke-opacity="0.31"/>
<path fill-rule="evenodd" clip-rule="evenodd" d="M14.8754 22.7615H11.907L9.68098 14.2693C9.57533 13.8787 9.351 13.5333 9.02101 13.3706C8.19748 12.9615 7.29001 12.636 6.30005 12.4718V12.1449H11.082C11.742 12.1449 12.2369 12.636 12.3194 13.2064L13.4744 19.3321L16.4414 12.1449H19.3274L14.8754 22.7615ZM20.9774 22.7615H18.1739L20.4824 12.1449H23.2858L20.9774 22.7615ZM26.9127 15.086C26.9952 14.5142 27.4902 14.1872 28.0676 14.1872C28.9751 14.1051 29.9636 14.2693 30.7886 14.677L31.2836 12.3911C30.4586 12.0642 29.5511 11.9 28.7276 11.9C26.0067 11.9 24.0267 13.3706 24.0267 15.4115C24.0267 16.9642 25.4292 17.7794 26.4192 18.2706C27.4902 18.7603 27.9027 19.0873 27.8202 19.577C27.8202 20.3115 26.9952 20.6385 26.1717 20.6385C25.1817 20.6385 24.1917 20.3936 23.2857 19.9846L22.7907 22.2718C23.7807 22.6795 24.8517 22.8436 25.8417 22.8436C28.8926 22.9243 30.7886 21.4552 30.7886 19.25C30.7886 16.4731 26.9127 16.3103 26.9127 15.086ZM40.6001 22.7615L38.3741 12.1449H35.9831C35.4882 12.1449 34.9932 12.4718 34.8282 12.9615L30.7062 22.7615H33.5922L34.1682 21.2103H37.7141L38.0441 22.7615H40.6001ZM36.3956 15.0039L37.2191 19.0052H34.9107L36.3956 15.0039Z" fill="#172B85"/>
</svg>
