<svg width="19" height="19" viewBox="0 0 19 19" fill="none" xmlns="http://www.w3.org/2000/svg">
<path fill-rule="evenodd" clip-rule="evenodd" d="M5.71113 0.749268H13.2974C16.2636 0.749268 18.2499 2.83177 18.2499 5.92927V13.0789C18.2499 16.1676 16.2636 18.2493 13.2974 18.2493H5.71113C2.74488 18.2493 0.749878 16.1676 0.749878 13.0789V5.92927C0.749878 2.83177 2.74488 0.749268 5.71113 0.749268ZM9.49115 6.92763C9.0799 6.92763 8.73865 6.58551 8.73865 6.16638C8.73865 5.73763 9.0799 5.39638 9.50865 5.39638C9.92865 5.39638 10.2699 5.73763 10.2699 6.16638C10.2699 6.58551 9.92865 6.92763 9.49115 6.92763ZM10.2611 12.8077C10.2611 13.2277 9.91986 13.5689 9.49111 13.5689C9.07111 13.5689 8.72986 13.2277 8.72986 12.8077V8.94016C8.72986 8.51928 9.07111 8.17016 9.49111 8.17016C9.91986 8.17016 10.2611 8.51928 10.2611 8.94016V12.8077Z" fill="#1C1C25"/>
</svg>
