<svg width="19" height="19" viewBox="0 0 19 19" fill="none" xmlns="http://www.w3.org/2000/svg">
<path fill-rule="evenodd" clip-rule="evenodd" d="M2.97238 0.75H5.92988C7.16363 0.75 8.15238 1.75625 8.15238 2.99088V5.97375C8.15238 7.21625 7.16363 8.21375 5.92988 8.21375H2.97238C1.74738 8.21375 0.749878 7.21625 0.749878 5.97375V2.99088C0.749878 1.75625 1.74738 0.75 2.97238 0.75ZM2.97238 10.786H5.92988C7.16363 10.786 8.15238 11.7844 8.15238 13.0269V16.0097C8.15238 17.2435 7.16363 18.2497 5.92988 18.2497H2.97238C1.74738 18.2497 0.749878 17.2435 0.749878 16.0097V13.0269C0.749878 11.7844 1.74738 10.786 2.97238 10.786ZM16.0275 0.75H13.07C11.8362 0.75 10.8475 1.75625 10.8475 2.99088V5.97375C10.8475 7.21625 11.8362 8.21375 13.07 8.21375H16.0275C17.2525 8.21375 18.25 7.21625 18.25 5.97375V2.99088C18.25 1.75625 17.2525 0.75 16.0275 0.75ZM13.07 10.786H16.0275C17.2525 10.786 18.25 11.7844 18.25 13.0269V16.0097C18.25 17.2435 17.2525 18.2497 16.0275 18.2497H13.07C11.8362 18.2497 10.8475 17.2435 10.8475 16.0097V13.0269C10.8475 11.7844 11.8362 10.786 13.07 10.786Z" fill="#1C1C25"/>
</svg>
