<svg width="17" height="19" viewBox="0 0 17 19" fill="none" xmlns="http://www.w3.org/2000/svg">
<path fill-rule="evenodd" clip-rule="evenodd" d="M4.83375 0.75H12.1671C14.87 0.75 16.375 2.3075 16.375 4.97625V14.015C16.375 16.7275 14.87 18.25 12.1671 18.25H4.83375C2.17375 18.25 0.625 16.7275 0.625 14.015V4.97625C0.625 2.3075 2.17375 0.75 4.83375 0.75ZM5.06999 4.82751V4.81876H7.68537C8.06249 4.81876 8.36874 5.12501 8.36874 5.50039C8.36874 5.88626 8.06249 6.19251 7.68537 6.19251H5.06999C4.69287 6.19251 4.38749 5.88626 4.38749 5.51001C4.38749 5.13376 4.69287 4.82751 5.06999 4.82751ZM5.06999 10.1475H11.93C12.3062 10.1475 12.6125 9.84126 12.6125 9.46501C12.6125 9.08876 12.3062 8.78163 11.93 8.78163H5.06999C4.69287 8.78163 4.38749 9.08876 4.38749 9.46501C4.38749 9.84126 4.69287 10.1475 5.06999 10.1475ZM5.07 14.1463H11.93C12.2791 14.1113 12.5425 13.8129 12.5425 13.4638C12.5425 13.105 12.2791 12.8075 11.93 12.7725H5.07C4.80751 12.7463 4.55375 12.8688 4.41375 13.0963C4.27375 13.315 4.27375 13.6038 4.41375 13.8313C4.55375 14.05 4.80751 14.1813 5.07 14.1463Z" fill="#1C1C25"/>
</svg>
