<svg width="225" height="184" viewBox="0 0 225 184" fill="none" xmlns="http://www.w3.org/2000/svg">
<path d="M146.236 65.2197L122.624 75.4693V141.063C122.624 147.127 117.935 152.043 112.137 152.043H37.7082C31.9253 152.043 27.236 147.127 27.236 141.063V75.4693L3.60987 65.2197C0.7184 63.9683 -0.390272 60.3035 1.28768 57.5325L24.7041 18.8584C26.2771 16.2513 29.0338 14.6722 31.9852 14.6722H50.6823C53.8285 14.6722 56.7349 16.4748 58.233 19.3649C61.4391 25.5623 67.7165 29.7932 74.9227 29.7932C82.054 29.7932 88.2714 25.6666 91.5074 19.5735C93.0805 16.6237 95.942 14.6722 99.178 14.6722H117.875C120.827 14.6722 123.583 16.2513 125.156 18.8733L148.558 57.5475C150.221 60.3035 149.112 63.9683 146.236 65.2197Z" fill="#CDE9D4"/>
<path d="M154.7 54.82C154.37 51.6915 151.719 49.3228 148.557 49.3228H121.396H102.099H77.4843H74.9374C71.7763 49.3228 69.1246 51.6915 68.795 54.82L57.3339 163.692C56.9594 167.312 59.8059 170.47 63.4764 170.47H102.099H121.396H160.018C163.689 170.47 166.535 167.312 166.161 163.692L154.7 54.82Z" fill="#9B99F5"/>
<path d="M159 54.7318C158.67 51.6033 156.018 49.2346 152.857 49.2346H125.695H106.399H81.7841H79.2372C76.0761 49.2346 73.4244 51.6033 73.0948 54.7318L61.6337 163.588C61.2592 167.209 64.1057 170.367 67.7762 170.367H106.399H125.695H164.318C167.989 170.367 170.835 167.209 170.461 163.588L159 54.7318Z" stroke="#01101E" stroke-width="1.48976" stroke-miterlimit="10" stroke-linecap="round"/>
<path d="M130.085 55.7301V64.2366C130.085 74.799 121.471 83.3651 110.849 83.3651C100.227 83.3651 91.6123 74.799 91.6123 64.2366V55.5364" stroke="#01101E" stroke-width="1.48976" stroke-miterlimit="10" stroke-linecap="round"/>
<path d="M159.989 162.695L149.277 61.0483C149.112 59.4841 148.363 58.1135 147.27 57.1302" stroke="#01101E" stroke-width="1.48976" stroke-miterlimit="10" stroke-linecap="round"/>
<path d="M178.865 177.92C204.068 177.92 224.499 157.604 224.499 132.542C224.499 107.48 204.068 87.1639 178.865 87.1639C153.662 87.1639 133.231 107.48 133.231 132.542C133.231 157.604 153.662 177.92 178.865 177.92Z" fill="#CDE9D4"/>
<path d="M219.061 147.469C220.694 142.791 221.578 137.771 221.578 132.557C221.578 107.499 201.143 87.1786 175.944 87.1786C150.745 87.1786 130.31 107.499 130.31 132.557C130.31 157.615 150.745 177.935 175.944 177.935C191.48 177.935 205.203 170.218 213.443 158.434" stroke="#01101E" stroke-width="1.48976" stroke-miterlimit="10" stroke-linecap="round"/>
<path d="M187.48 93.8827C187.48 93.8827 151.045 118.821 159.629 170.367" stroke="#01101E" stroke-width="1.48976" stroke-miterlimit="10" stroke-linecap="round"/>
<path d="M208.379 120.222C196.813 121.101 168.723 121.354 149.336 105.89" stroke="#01101E" stroke-width="1.48976" stroke-miterlimit="10" stroke-linecap="round"/>
<path d="M194.566 162.695C194.566 162.695 168.543 135.894 137.831 144.281" stroke="#01101E" stroke-width="1.48976" stroke-miterlimit="10" stroke-linecap="round"/>
<path d="M27.2358 113.771V49.2345" stroke="#01101E" stroke-width="1.48976" stroke-miterlimit="10" stroke-linecap="round"/>
<path d="M208.155 10.5008C208.02 11.3201 207.75 12.0799 207.376 12.7652C207.346 12.8099 207.331 12.8397 207.316 12.8844L204.364 15.7447L194.761 25.0557C193.173 26.5902 190.551 26.1432 189.562 24.1917L183.54 12.3034L181.682 8.60879C181.682 8.57899 181.667 8.53429 181.667 8.50449C181.532 7.72982 181.532 6.92537 181.667 6.106C182.341 2.12834 186.132 -0.568118 190.132 0.102274C192.619 0.519406 194.596 2.12833 195.585 4.22889C197.203 2.56036 199.615 1.6814 202.102 2.08363C206.117 2.75403 208.829 6.52311 208.155 10.5008Z" fill="#F45959"/>
<path d="M208.155 13.3611C208.005 14.255 207.72 15.0893 207.301 15.8341C207.271 15.8788 207.256 15.9235 207.226 15.9682L204.005 19.0967L193.533 29.2718C191.81 30.9403 188.948 30.4636 187.855 28.3332L181.293 15.3425L179.24 11.2903C179.24 11.2457 179.225 11.2159 179.225 11.1712C179.075 10.322 179.075 9.44305 179.225 8.54919C179.959 4.19909 184.094 1.26427 188.469 1.99426C191.181 2.44118 193.353 4.19908 194.432 6.49331C196.199 4.66091 198.836 3.7075 201.548 4.15443C205.923 4.9142 208.874 9.02593 208.155 13.3611Z" stroke="#01101E" stroke-width="1.48976" stroke-miterlimit="10"/>
<path d="M201.998 183H212.035" stroke="#01101E" stroke-width="1.48976" stroke-miterlimit="10" stroke-linecap="round"/>
<path d="M11.2202 183H145.501" stroke="#01101E" stroke-width="1.48976" stroke-miterlimit="10" stroke-linecap="round"/>
</svg>
