<svg width="21" height="24" viewBox="0 0 21 24" fill="none" xmlns="http://www.w3.org/2000/svg">
<path d="M5.76196 7.31622L5.76196 6.08414C5.76196 3.3623 7.96845 1.15581 10.6903 1.15581V1.15581C13.4121 1.15581 15.6186 3.3623 15.6186 6.08414L15.6186 7.31622" stroke="#CDE9D4" stroke-width="2" stroke-linecap="round"/>
<path d="M1.83325 15.3248C1.83325 13.4081 1.83537 12.071 1.9708 11.0623C2.1024 10.0822 2.34314 9.5637 2.71193 9.1949C3.08095 8.82589 3.59905 8.58529 4.57741 8.45375C5.58455 8.31835 6.91936 8.31622 8.83325 8.31622H12.5466C14.4605 8.31622 15.7953 8.31835 16.8024 8.45375C17.7808 8.58529 18.2989 8.82589 18.6679 9.1949C19.0367 9.5637 19.2774 10.0822 19.409 11.0623C19.5445 12.071 19.5466 13.4081 19.5466 15.3248C19.5466 17.2415 19.5445 18.5785 19.409 19.5872C19.2774 20.5673 19.0367 21.0858 18.6679 21.4546C18.2989 21.8236 17.7808 22.0642 16.8024 22.1958C15.7953 22.3312 14.4605 22.3333 12.5466 22.3333H8.83325C6.91936 22.3333 5.58455 22.3312 4.57741 22.1958C3.59905 22.0642 3.08095 21.8236 2.71193 21.4546C2.34314 21.0858 2.1024 20.5673 1.9708 19.5872C1.83537 18.5785 1.83325 17.2415 1.83325 15.3248Z" fill="#CDE9D4" stroke="#CDE9D4" stroke-width="2"/>
<path d="M14.3862 14.7086V12.2444" stroke="white" stroke-width="2" stroke-linecap="round"/>
<path d="M6.9939 14.7086V12.2444" stroke="white" stroke-width="2" stroke-linecap="round"/>
</svg>
