<svg width="21" height="25" viewBox="0 0 21 25" fill="none" xmlns="http://www.w3.org/2000/svg">
<path d="M6.43454 19.493C7.77655 19.6265 9.12447 19.6918 10.4731 19.6887C11.2563 19.6887 11.9632 19.6771 12.6045 19.6496M6.43454 19.493L6.53806 18.4983C6.53729 18.4983 6.53652 18.4982 6.53576 18.4981M6.43454 19.493C6.17117 19.4656 5.92543 19.4353 5.69535 19.4039C5.46527 19.3726 5.2489 19.3392 5.05309 19.3059M6.43454 19.493L6.53355 18.4979C6.53428 18.498 6.53502 18.498 6.53576 18.4981M6.53576 18.4981C7.84336 18.6281 9.15673 18.6917 10.4708 18.6887L10.4731 18.6887C11.2471 18.6887 11.939 18.6772 12.5618 18.6506M6.53576 18.4981C6.28508 18.472 6.05065 18.4431 5.83028 18.4131C5.61255 18.3834 5.40836 18.3519 5.22441 18.3207M12.5618 18.6506C12.5615 18.6506 12.5612 18.6506 12.5609 18.6506L12.6045 19.6496M12.5618 18.6506L12.6045 19.6496M12.5618 18.6506C13.6541 18.6028 14.5333 18.5173 15.2356 18.4169L15.2362 18.4168C15.5077 18.3781 15.7555 18.3333 15.9963 18.2897C16.0162 18.286 16.0361 18.2824 16.056 18.2789L16.0829 18.274L16.11 18.2706C16.6839 18.199 17.2396 18.0219 17.7492 17.7483M12.6045 19.6496C13.7255 19.6007 14.638 19.5125 15.3772 19.4068C15.6682 19.3654 15.9336 19.3173 16.1724 19.274C16.1931 19.2703 16.2136 19.2666 16.2339 19.2629C16.9382 19.175 17.6199 18.9561 18.2438 18.6177M17.7492 17.7483C17.7436 17.7516 17.738 17.755 17.7324 17.7583L18.2438 18.6177M17.7492 17.7483C17.7551 17.7451 17.7611 17.7419 17.767 17.7387L18.2438 18.6177M17.7492 17.7483C18.1281 17.5198 18.459 17.2199 18.7235 16.8651C18.9919 16.5051 19.1867 16.0956 19.2967 15.6601C19.4066 15.2248 19.4295 14.772 19.3642 14.3276C19.3026 13.9083 19.1634 13.5043 18.9541 13.1362M18.2438 18.6177C18.7428 18.3207 19.1782 17.9283 19.5252 17.4628C19.8723 16.9973 20.1241 16.4679 20.2662 15.905C20.4084 15.342 20.438 14.7566 20.3536 14.1822C20.2691 13.6077 20.0722 13.0556 19.7741 12.5574L19.0132 13.2063C18.9933 13.183 18.9736 13.1597 18.9541 13.1362M18.9541 13.1362C18.4101 12.4839 17.9694 11.7518 17.6473 10.9655L17.6428 10.9544L17.6428 10.9544C17.3755 10.2785 17.2404 9.55774 17.2448 8.831V8.61767C17.2448 6.82221 16.5316 5.10033 15.262 3.83077C13.9925 2.56122 12.2705 1.84802 10.475 1.84802C8.67906 1.84802 6.95675 2.56143 5.68681 3.83137C4.41686 5.10132 3.70335 6.82376 3.70335 8.6197V8.8348C3.70782 9.55828 3.57332 10.2758 3.3072 10.9485L3.30307 10.959L3.30301 10.9589C2.98081 11.7474 2.53924 12.4815 1.99391 13.1354C1.78434 13.5035 1.64498 13.9076 1.58314 14.3272C1.51763 14.7716 1.54044 15.2246 1.65026 15.6601C1.76008 16.0958 1.95471 16.5054 2.22304 16.8656C2.49035 17.2245 2.82559 17.5273 3.20962 17.7569M18.9541 13.1362L5.05309 19.3059M5.05309 19.3059L5.22068 18.3201C5.22192 18.3203 5.22317 18.3205 5.22441 18.3207M5.05309 19.3059L5.22842 18.3214L5.22441 18.3207M5.22441 18.3207L4.94942 18.2717C4.77664 18.2384 4.62382 18.2073 4.48602 18.1762L4.26903 18.1246L4.15502 18.0975H4.13599M4.13599 18.0975C3.98774 18.0612 3.84171 18.0164 3.6987 17.9632L3.68918 17.9597L3.67959 17.9564C3.62036 17.9357 3.57301 17.9185 3.53574 17.904L3.5253 17.9L3.51478 17.8961C3.42521 17.8636 3.33801 17.8255 3.25358 17.7822M4.13599 18.0975H4.13519L4.1429 18.0992C4.1406 18.0986 4.13829 18.0981 4.13599 18.0975ZM3.25358 17.7822L3.2193 17.7625L3.20962 17.7569M3.25358 17.7822C3.24962 17.7801 3.24566 17.7781 3.24171 17.776M3.25358 17.7822L3.27212 17.7928L3.27156 17.7938L3.27557 17.7962L3.33113 17.8411C3.31131 17.8251 3.29102 17.81 3.27034 17.7959L3.03114 18.2122L3.24171 17.776M3.20962 17.7569C3.21113 17.7578 3.21265 17.7587 3.21417 17.7596L3.21921 17.7626L3.24171 17.776M3.20962 17.7569L3.15326 17.7245L3.08225 17.697C3.127 17.7143 3.17105 17.7354 3.21379 17.7603C3.21548 17.7612 3.21717 17.7622 3.21886 17.7632C3.22511 17.7669 3.23134 17.7707 3.23753 17.7745L3.24171 17.776" stroke="#6C6D76" stroke-width="2"/>
<path d="M10.4162 21.8783L10.4773 21.882L10.5384 21.8783C11.3317 21.8297 12.1262 21.9306 12.8807 22.1747C12.7704 22.3993 12.6154 22.6001 12.4241 22.7642C12.1661 22.9857 11.8521 23.1319 11.5167 23.1869L11.4663 23.1952L11.417 23.2086C10.8035 23.3748 10.1568 23.3748 9.54335 23.2086L9.49425 23.1953L9.44406 23.187C9.10852 23.1318 8.79456 22.9855 8.53646 22.764L7.88518 23.5228L8.53646 22.764C8.34481 22.5995 8.18948 22.3983 8.07903 22.1731C8.83209 21.9302 9.62475 21.8299 10.4162 21.8783Z" stroke="#6C6D76" stroke-width="2"/>
</svg>
