<svg width="20" height="24" viewBox="0 0 20 24" fill="none" xmlns="http://www.w3.org/2000/svg">
<path d="M1 11.6594C1 9.64443 1.02139 8.94664 1.29733 8.34667C1.57328 7.74671 2.08916 7.27635 3.61907 5.96501L5.03573 4.75072C6.37522 3.60259 7.3103 2.80351 8.10223 2.28047C8.87076 1.77289 9.40086 1.59756 9.91667 1.59756C10.4325 1.59756 10.9626 1.77289 11.7311 2.28047C12.523 2.80351 13.4581 3.60259 14.7976 4.75072L16.2143 5.96501C17.7442 7.27635 18.2601 7.74671 18.536 8.34667C18.8119 8.94664 18.8333 9.64442 18.8333 11.6594V17.6666C18.8333 19.0306 18.8312 19.9529 18.7385 20.6423C18.6497 21.303 18.4945 21.5982 18.2964 21.7963C18.0982 21.9945 17.803 22.1497 17.1424 22.2385C16.4529 22.3312 15.5306 22.3333 14.1667 22.3333H5.66667C4.30275 22.3333 3.38041 22.3312 2.69098 22.2385C2.03031 22.1497 1.73513 21.9945 1.53697 21.7963C1.33881 21.5982 1.18364 21.303 1.09482 20.6423C1.00212 19.9529 1 19.0306 1 17.6666V11.6594Z" stroke="#6C6D76" stroke-width="2"/>
<path d="M13.4583 22.3333V14.8333C13.4583 14.281 13.0106 13.8333 12.4583 13.8333H7.375C6.82272 13.8333 6.375 14.281 6.375 14.8333V22.3333" stroke="#6C6D76" stroke-width="2" stroke-linecap="square" stroke-linejoin="round"/>
</svg>
