<svg width="10" height="10" viewBox="0 0 10 10" fill="none" xmlns="http://www.w3.org/2000/svg">
<path fill-rule="evenodd" clip-rule="evenodd" d="M5.5331 0.943791L6.66047 3.32193L8.96919 3.56681C9.20822 3.59 9.40942 3.75561 9.47813 3.98573C9.54684 4.21585 9.46939 4.46466 9.2822 4.61512L7.44139 6.12877L8.01086 8.67338C8.06289 8.90459 7.97168 9.14451 7.7792 9.28277C7.58672 9.42104 7.33024 9.43088 7.12774 9.30776L4.99898 8.01264L2.8683 9.30712C2.66571 9.42999 2.40933 9.42006 2.21684 9.28189C2.02435 9.14372 1.93293 8.90399 1.98454 8.67273L2.55657 6.12877L0.715768 4.61512C0.529924 4.46427 0.453487 4.21618 0.522215 3.9869C0.590943 3.75762 0.791246 3.59248 1.02942 3.56874L3.3375 3.32386L4.46487 0.943791C4.56282 0.737598 4.77071 0.606201 4.99898 0.606201C5.22726 0.606201 5.43515 0.737598 5.5331 0.943791Z" fill="#6C6D76"/>
</svg>
